<svg width="80" height="20" viewBox="0 0 208 31" fill="none" xmlns="http://www.w3.org/2000/svg">
<path d="M0.522727 30V0.90909H17.9659V4.03409H4.04545V13.8636H16.6591V16.9886H4.04545V30H0.522727ZM21.5597 30H17.8665L28.5483 0.90909H32.1847L42.8665 30H39.1733L30.4801 5.51136H30.2528L21.5597 30ZM22.9233 18.6364H37.8097V21.7614H22.9233V18.6364ZM69.4396 10H65.9169C65.7086 8.98674 65.344 8.09659 64.8232 7.32955C64.3118 6.5625 63.6868 5.91856 62.9482 5.39773C62.219 4.86742 61.4093 4.4697 60.5192 4.20455C59.629 3.93939 58.701 3.80682 57.7351 3.80682C55.9737 3.80682 54.3781 4.25189 52.9482 5.14205C51.5277 6.0322 50.3961 7.34375 49.5533 9.0767C48.7199 10.8097 48.3033 12.9356 48.3033 15.4545C48.3033 17.9735 48.7199 20.0994 49.5533 21.8324C50.3961 23.5653 51.5277 24.8769 52.9482 25.767C54.3781 26.6572 55.9737 27.1023 57.7351 27.1023C58.701 27.1023 59.629 26.9697 60.5192 26.7045C61.4093 26.4394 62.219 26.0464 62.9482 25.5256C63.6868 24.9953 64.3118 24.3466 64.8232 23.5795C65.344 22.803 65.7086 21.9129 65.9169 20.9091H69.4396C69.1745 22.3958 68.6915 23.7263 67.9908 24.9006C67.29 26.0748 66.4188 27.0739 65.3771 27.8977C64.3355 28.7121 63.166 29.3324 61.8686 29.7585C60.5807 30.1847 59.2029 30.3977 57.7351 30.3977C55.254 30.3977 53.0476 29.7917 51.1158 28.5795C49.1839 27.3674 47.6641 25.6439 46.5561 23.4091C45.4482 21.1742 44.8942 18.5227 44.8942 15.4545C44.8942 12.3864 45.4482 9.73485 46.5561 7.5C47.6641 5.26515 49.1839 3.54167 51.1158 2.32955C53.0476 1.11742 55.254 0.511363 57.7351 0.511363C59.2029 0.511363 60.5807 0.724431 61.8686 1.15057C63.166 1.5767 64.3355 2.2017 65.3771 3.02557C66.4188 3.83996 67.29 4.83428 67.9908 6.00852C68.6915 7.17329 69.1745 8.50379 69.4396 10ZM75.1321 30V0.90909H92.6889V4.03409H78.6548V13.8636H91.7798V16.9886H78.6548V26.875H92.9162V30H75.1321ZM99.0384 30V0.90909H109.209C111.235 0.90909 112.907 1.25947 114.223 1.96023C115.539 2.65151 116.519 3.58428 117.163 4.75852C117.807 5.92329 118.129 7.21591 118.129 8.63636C118.129 9.88636 117.907 10.9186 117.462 11.733C117.026 12.5473 116.448 13.1913 115.729 13.6648C115.018 14.1383 114.247 14.4886 113.413 14.7159V15C114.304 15.0568 115.198 15.3693 116.098 15.9375C116.998 16.5057 117.75 17.3201 118.357 18.3807C118.963 19.4413 119.266 20.7386 119.266 22.2727C119.266 23.7311 118.934 25.0426 118.271 26.2074C117.608 27.3722 116.562 28.2955 115.132 28.9773C113.702 29.6591 111.841 30 109.55 30H99.0384ZM102.561 26.875H109.55C111.851 26.875 113.484 26.4299 114.45 25.5398C115.426 24.6402 115.913 23.5511 115.913 22.2727C115.913 21.2879 115.662 20.3788 115.161 19.5455C114.659 18.7027 113.944 18.0303 113.016 17.5284C112.088 17.017 110.989 16.7614 109.72 16.7614H102.561V26.875ZM102.561 13.6932H109.095C110.156 13.6932 111.112 13.4848 111.964 13.0682C112.826 12.6515 113.508 12.0644 114.01 11.3068C114.521 10.5492 114.777 9.65909 114.777 8.63636C114.777 7.35795 114.332 6.27367 113.442 5.38352C112.552 4.4839 111.141 4.03409 109.209 4.03409H102.561V13.6932ZM149.599 15.4545C149.599 18.5227 149.045 21.1742 147.938 23.4091C146.83 25.6439 145.31 27.3674 143.378 28.5795C141.446 29.7917 139.24 30.3977 136.759 30.3977C134.277 30.3977 132.071 29.7917 130.139 28.5795C128.207 27.3674 126.688 25.6439 125.58 23.4091C124.472 21.1742 123.918 18.5227 123.918 15.4545C123.918 12.3864 124.472 9.73485 125.58 7.5C126.688 5.26515 128.207 3.54167 130.139 2.32955C132.071 1.11742 134.277 0.511363 136.759 0.511363C139.24 0.511363 141.446 1.11742 143.378 2.32955C145.31 3.54167 146.83 5.26515 147.938 7.5C149.045 9.73485 149.599 12.3864 149.599 15.4545ZM146.19 15.4545C146.19 12.9356 145.769 10.8097 144.926 9.0767C144.093 7.34375 142.961 6.0322 141.531 5.14205C140.111 4.25189 138.52 3.80682 136.759 3.80682C134.997 3.80682 133.402 4.25189 131.972 5.14205C130.551 6.0322 129.42 7.34375 128.577 9.0767C127.743 10.8097 127.327 12.9356 127.327 15.4545C127.327 17.9735 127.743 20.0994 128.577 21.8324C129.42 23.5653 130.551 24.8769 131.972 25.767C133.402 26.6572 134.997 27.1023 136.759 27.1023C138.52 27.1023 140.111 26.6572 141.531 25.767C142.961 24.8769 144.093 23.5653 144.926 21.8324C145.769 20.0994 146.19 17.9735 146.19 15.4545ZM180.068 15.4545C180.068 18.5227 179.514 21.1742 178.406 23.4091C177.298 25.6439 175.778 27.3674 173.847 28.5795C171.915 29.7917 169.708 30.3977 167.227 30.3977C164.746 30.3977 162.54 29.7917 160.608 28.5795C158.676 27.3674 157.156 25.6439 156.048 23.4091C154.94 21.1742 154.386 18.5227 154.386 15.4545C154.386 12.3864 154.94 9.73485 156.048 7.5C157.156 5.26515 158.676 3.54167 160.608 2.32955C162.54 1.11742 164.746 0.511363 167.227 0.511363C169.708 0.511363 171.915 1.11742 173.847 2.32955C175.778 3.54167 177.298 5.26515 178.406 7.5C179.514 9.73485 180.068 12.3864 180.068 15.4545ZM176.659 15.4545C176.659 12.9356 176.238 10.8097 175.395 9.0767C174.562 7.34375 173.43 6.0322 172 5.14205C170.58 4.25189 168.989 3.80682 167.227 3.80682C165.466 3.80682 163.87 4.25189 162.44 5.14205C161.02 6.0322 159.888 7.34375 159.045 9.0767C158.212 10.8097 157.795 12.9356 157.795 15.4545C157.795 17.9735 158.212 20.0994 159.045 21.8324C159.888 23.5653 161.02 24.8769 162.44 25.767C163.87 26.6572 165.466 27.1023 167.227 27.1023C168.989 27.1023 170.58 26.6572 172 25.767C173.43 24.8769 174.562 23.5653 175.395 21.8324C176.238 20.0994 176.659 17.9735 176.659 15.4545ZM185.991 30V0.90909H189.514V15.3409H189.855L202.923 0.90909H207.526L195.31 14.0341L207.526 30H203.264L193.151 16.4773L189.514 20.5682V30H185.991Z" fill="#522828" fill-opacity="0.63"/>
<path d="M0.522727 30H-1.47727V32H0.522727V30ZM0.522727 0.90909V-1.09091H-1.47727V0.90909H0.522727ZM17.9659 0.90909H19.9659V-1.09091H17.9659V0.90909ZM17.9659 4.03409V6.03409H19.9659V4.03409H17.9659ZM4.04545 4.03409V2.03409H2.04545V4.03409H4.04545ZM4.04545 13.8636H2.04545V15.8636H4.04545V13.8636ZM16.6591 13.8636H18.6591V11.8636H16.6591V13.8636ZM16.6591 16.9886V18.9886H18.6591V16.9886H16.6591ZM4.04545 16.9886V14.9886H2.04545V16.9886H4.04545ZM4.04545 30V32H6.04545V30H4.04545ZM2.52273 30V0.90909H-1.47727V30H2.52273ZM0.522727 2.90909H17.9659V-1.09091H0.522727V2.90909ZM15.9659 0.90909V4.03409H19.9659V0.90909H15.9659ZM17.9659 2.03409H4.04545V6.03409H17.9659V2.03409ZM2.04545 4.03409V13.8636H6.04545V4.03409H2.04545ZM4.04545 15.8636H16.6591V11.8636H4.04545V15.8636ZM14.6591 13.8636V16.9886H18.6591V13.8636H14.6591ZM16.6591 14.9886H4.04545V18.9886H16.6591V14.9886ZM2.04545 16.9886V30H6.04545V16.9886H2.04545ZM4.04545 28H0.522727V32H4.04545V28ZM21.5597 30V32H22.972L23.4444 30.6691L21.5597 30ZM17.8665 30L15.989 29.3106L15.0015 32H17.8665V30ZM28.5483 0.90909V-1.09091H27.1521L26.6709 0.219719L28.5483 0.90909ZM32.1847 0.90909L34.0621 0.219719L33.5808 -1.09091H32.1847V0.90909ZM42.8665 30V32H45.7314L44.7439 29.3106L42.8665 30ZM39.1733 30L37.2885 30.6691L37.761 32H39.1733V30ZM30.4801 5.51136L32.3649 4.84229L31.8924 3.51136H30.4801V5.51136ZM30.2528 5.51136V3.51136H28.8405L28.3681 4.84229L30.2528 5.51136ZM22.9233 18.6364V16.6364H20.9233V18.6364H22.9233ZM37.8097 18.6364H39.8097V16.6364H37.8097V18.6364ZM37.8097 21.7614V23.7614H39.8097V21.7614H37.8097ZM22.9233 21.7614H20.9233V23.7614H22.9233V21.7614ZM21.5597 28H17.8665V32H21.5597V28ZM19.7439 30.6894L30.4257 1.59846L26.6709 0.219719L15.989 29.3106L19.7439 30.6894ZM28.5483 2.90909H32.1847V-1.09091H28.5483V2.90909ZM30.3072 1.59846L40.989 30.6894L44.7439 29.3106L34.0621 0.219719L30.3072 1.59846ZM42.8665 28H39.1733V32H42.8665V28ZM41.0581 29.3309L32.3649 4.84229L28.5953 6.18043L37.2885 30.6691L41.0581 29.3309ZM30.4801 3.51136H30.2528V7.51136H30.4801V3.51136ZM28.3681 4.84229L19.6749 29.3309L23.4444 30.6691L32.1376 6.18043L28.3681 4.84229ZM22.9233 20.6364H37.8097V16.6364H22.9233V20.6364ZM35.8097 18.6364V21.7614H39.8097V18.6364H35.8097ZM37.8097 19.7614H22.9233V23.7614H37.8097V19.7614ZM24.9233 21.7614V18.6364H20.9233V21.7614H24.9233ZM69.4396 10V12H71.8252L71.4089 9.65101L69.4396 10ZM65.9169 10L63.9579 10.4028L64.2863 12H65.9169V10ZM64.8232 7.32955L63.1591 8.43895L63.1638 8.44602L63.1685 8.45305L64.8232 7.32955ZM62.9482 5.39773L61.7718 7.0152L61.7836 7.02381L61.7956 7.03224L62.9482 5.39773ZM60.5192 4.20455L59.9482 6.12132L59.9482 6.12132L60.5192 4.20455ZM52.9482 5.14205L51.8912 3.44415L51.8861 3.44732L52.9482 5.14205ZM49.5533 9.0767L47.7547 8.20198L47.7508 8.20996L49.5533 9.0767ZM49.5533 21.8324L47.7508 22.6991L47.7547 22.7071L49.5533 21.8324ZM52.9482 25.767L51.8861 27.4618L51.8912 27.4649L52.9482 25.767ZM60.5192 26.7045L59.9482 24.7878L59.9482 24.7878L60.5192 26.7045ZM62.9482 25.5256L64.1106 27.153L64.1146 27.1502L62.9482 25.5256ZM64.8232 23.5795L63.1622 22.4655L63.1591 22.4701L64.8232 23.5795ZM65.9169 20.9091V18.9091H64.2894L63.9586 20.5027L65.9169 20.9091ZM69.4396 20.9091L71.4086 21.2602L71.8279 18.9091H69.4396V20.9091ZM67.9908 24.9006L66.2733 23.8757L66.2733 23.8757L67.9908 24.9006ZM65.3771 27.8977L66.609 29.4734L66.6178 29.4664L65.3771 27.8977ZM61.8686 29.7585L61.2445 27.8584L61.2403 27.8598L61.8686 29.7585ZM51.1158 28.5795L50.0528 30.2737L50.0528 30.2737L51.1158 28.5795ZM46.5561 23.4091L48.348 22.5207L48.348 22.5207L46.5561 23.4091ZM46.5561 7.5L44.7642 6.61165L46.5561 7.5ZM61.8686 1.15057L61.2403 3.04933L61.2445 3.05069L61.8686 1.15057ZM65.3771 3.02557L64.1364 4.59426L64.1453 4.60118L65.3771 3.02557ZM67.9908 6.00852L66.2733 7.03344L66.277 7.03956L67.9908 6.00852ZM69.4396 8H65.9169V12H69.4396V8ZM67.8759 9.59721C67.6207 8.35587 67.1627 7.21481 66.4778 6.20604L63.1685 8.45305C63.5252 8.97837 63.7964 9.61762 63.9579 10.4028L67.8759 9.59721ZM66.4873 6.22014C65.842 5.25222 65.0448 4.42894 64.1007 3.76321L61.7956 7.03224C62.3288 7.40818 62.7816 7.87278 63.1591 8.43895L66.4873 6.22014ZM64.1245 3.78026C63.2064 3.11257 62.1909 2.61567 61.0901 2.28777L59.9482 6.12132C60.6277 6.32372 61.2315 6.62228 61.7718 7.0152L64.1245 3.78026ZM61.0901 2.28777C60.0074 1.96525 58.8866 1.80682 57.7351 1.80682V5.80682C58.5154 5.80682 59.2507 5.91353 59.9482 6.12132L61.0901 2.28777ZM57.7351 1.80682C55.618 1.80682 53.6532 2.34729 51.8912 3.44416L54.0051 6.83993C55.103 6.15649 56.3294 5.80682 57.7351 5.80682V1.80682ZM51.8861 3.44732C50.103 4.56477 48.7363 6.18358 47.7547 8.20199L51.3518 9.95142C52.0558 8.50392 52.9524 7.49962 54.0102 6.83677L51.8861 3.44732ZM47.7508 8.20996C46.7537 10.2837 46.3033 12.7248 46.3033 15.4545H50.3033C50.3033 13.1465 50.6862 11.3357 51.3557 9.94345L47.7508 8.20996ZM46.3033 15.4545C46.3033 18.1843 46.7537 20.6254 47.7508 22.6991L51.3557 20.9656C50.6862 19.5734 50.3033 17.7626 50.3033 15.4545H46.3033ZM47.7547 22.7071C48.7363 24.7255 50.103 26.3443 51.8861 27.4618L54.0102 24.0723C52.9524 23.4095 52.0558 22.4052 51.3518 20.9577L47.7547 22.7071ZM51.8912 27.4649C53.6532 28.5618 55.618 29.1023 57.7351 29.1023V25.1023C56.3294 25.1023 55.103 24.7526 54.0051 24.0692L51.8912 27.4649ZM57.7351 29.1023C58.8866 29.1023 60.0074 28.9438 61.0901 28.6213L59.9482 24.7878C59.2507 24.9956 58.5154 25.1023 57.7351 25.1023V29.1023ZM61.0901 28.6213C62.1843 28.2954 63.1951 27.807 64.1106 27.153L61.7857 23.8981C61.2429 24.2858 60.6344 24.5834 59.9482 24.7878L61.0901 28.6213ZM64.1146 27.1502C65.0515 26.4775 65.8442 25.6535 66.4873 24.6889L63.1591 22.4701C62.7793 23.0397 62.3221 23.513 61.7817 23.9009L64.1146 27.1502ZM66.4841 24.6936C67.1621 23.6828 67.6194 22.5477 67.8752 21.3155L63.9586 20.5027C63.7977 21.2781 63.5259 21.9233 63.1622 22.4655L66.4841 24.6936ZM65.9169 22.9091H69.4396V18.9091H65.9169V22.9091ZM67.4707 20.5579C67.2436 21.8315 66.838 22.9295 66.2733 23.8757L69.7082 25.9255C70.5451 24.5231 71.1054 22.9601 71.4086 21.2602L67.4707 20.5579ZM66.2733 23.8757C65.6934 24.8475 64.9818 25.6605 64.1365 26.3291L66.6178 29.4664C67.8558 28.4873 68.8866 27.3021 69.7082 25.9255L66.2733 23.8757ZM64.1453 26.3221C63.2919 26.9893 62.3293 27.5021 61.2445 27.8584L62.4927 31.6586C64.0026 31.1627 65.3791 30.4349 66.609 29.4733L64.1453 26.3221ZM61.2403 27.8598C60.1711 28.2136 59.0069 28.3977 57.7351 28.3977V32.3977C59.3989 32.3977 60.9904 32.1558 62.4969 31.6573L61.2403 27.8598ZM57.7351 28.3977C55.5957 28.3977 53.7642 27.8802 52.1787 26.8854L50.0528 30.2737C52.331 31.7031 54.9123 32.3977 57.7351 32.3977V28.3977ZM52.1787 26.8854C50.5886 25.8877 49.3079 24.457 48.348 22.5207L44.7642 24.2974C46.0202 26.8309 47.7793 28.8472 50.0528 30.2737L52.1787 26.8854ZM48.348 22.5207C47.4048 20.6182 46.8942 18.2841 46.8942 15.4545H42.8942C42.8942 18.7613 43.4915 21.7302 44.7642 24.2974L48.348 22.5207ZM46.8942 15.4545C46.8942 12.625 47.4048 10.2908 48.348 8.38835L44.7642 6.61165C43.4915 9.17885 42.8942 12.1477 42.8942 15.4545H46.8942ZM48.348 8.38835C49.3079 6.45214 50.5886 5.02142 52.1787 4.02367L50.0528 0.635417C47.7793 2.06192 46.0202 4.07817 44.7642 6.61165L48.348 8.38835ZM52.1787 4.02367C53.7642 3.0289 55.5957 2.51136 57.7351 2.51136V-1.48864C54.9123 -1.48864 52.331 -0.794052 50.0528 0.635417L52.1787 4.02367ZM57.7351 2.51136C59.0069 2.51136 60.1711 2.69553 61.2403 3.04933L62.4969 -0.748191C60.9904 -1.24667 59.3989 -1.48864 57.7351 -1.48864V2.51136ZM61.2445 3.05069C62.3248 3.40555 63.2844 3.92037 64.1365 4.59424L66.6178 1.4569C65.3865 0.483041 64.0071 -0.252141 62.4927 -0.749555L61.2445 3.05069ZM64.1453 4.60118C64.9858 5.25835 65.6947 6.06378 66.2733 7.03344L69.7082 4.98361C68.8853 3.60478 67.8518 2.42158 66.609 1.44995L64.1453 4.60118ZM66.277 7.03956C66.8375 7.97126 67.2429 9.06557 67.4703 10.349L71.4089 9.65101C71.1061 7.942 70.5455 6.37532 69.7045 4.97748L66.277 7.03956ZM75.1321 30H73.1321V32H75.1321V30ZM75.1321 0.90909V-1.09091H73.1321V0.90909H75.1321ZM92.6889 0.90909H94.6889V-1.09091H92.6889V0.90909ZM92.6889 4.03409V6.03409H94.6889V4.03409H92.6889ZM78.6548 4.03409V2.03409H76.6548V4.03409H78.6548ZM78.6548 13.8636H76.6548V15.8636H78.6548V13.8636ZM91.7798 13.8636H93.7798V11.8636H91.7798V13.8636ZM91.7798 16.9886V18.9886H93.7798V16.9886H91.7798ZM78.6548 16.9886V14.9886H76.6548V16.9886H78.6548ZM78.6548 26.875H76.6548V28.875H78.6548V26.875ZM92.9162 26.875H94.9162V24.875H92.9162V26.875ZM92.9162 30V32H94.9162V30H92.9162ZM77.1321 30V0.90909H73.1321V30H77.1321ZM75.1321 2.90909H92.6889V-1.09091H75.1321V2.90909ZM90.6889 0.90909V4.03409H94.6889V0.90909H90.6889ZM92.6889 2.03409H78.6548V6.03409H92.6889V2.03409ZM76.6548 4.03409V13.8636H80.6548V4.03409H76.6548ZM78.6548 15.8636H91.7798V11.8636H78.6548V15.8636ZM89.7798 13.8636V16.9886H93.7798V13.8636H89.7798ZM91.7798 14.9886H78.6548V18.9886H91.7798V14.9886ZM76.6548 16.9886V26.875H80.6548V16.9886H76.6548ZM78.6548 28.875H92.9162V24.875H78.6548V28.875ZM90.9162 26.875V30H94.9162V26.875H90.9162ZM92.9162 28H75.1321V32H92.9162V28ZM99.0384 30H97.0384V32H99.0384V30ZM99.0384 0.90909V-1.09091H97.0384V0.90909H99.0384ZM114.223 1.96023L113.283 3.72566L113.293 3.73089L114.223 1.96023ZM117.163 4.75852L115.41 5.72019L115.413 5.72618L117.163 4.75852ZM117.462 11.733L115.707 10.7738L115.702 10.7817L115.698 10.7897L117.462 11.733ZM115.729 13.6648L114.629 11.9939L114.619 12.0007L115.729 13.6648ZM113.413 14.7159L112.887 12.7864L111.413 13.1883V14.7159H113.413ZM113.413 15H111.413V16.8764L113.286 16.9959L113.413 15ZM116.098 15.9375L115.03 17.6285L115.03 17.6285L116.098 15.9375ZM118.271 26.2074L120.01 27.1966L120.01 27.1966L118.271 26.2074ZM115.132 28.9773L114.271 27.172L114.271 27.172L115.132 28.9773ZM102.561 26.875H100.561V28.875H102.561V26.875ZM114.45 25.5398L115.806 27.0105L115.806 27.0099L114.45 25.5398ZM115.161 19.5455L113.442 20.5688L113.447 20.5773L115.161 19.5455ZM113.016 17.5284L112.05 19.2801L112.057 19.2839L112.064 19.2876L113.016 17.5284ZM102.561 16.7614V14.7614H100.561V16.7614H102.561ZM102.561 13.6932H100.561V15.6932H102.561V13.6932ZM111.964 13.0682L111.094 11.2676L111.086 11.2714L111.964 13.0682ZM114.01 11.3068L112.352 10.1879L112.347 10.195L112.343 10.2022L114.01 11.3068ZM113.442 5.38352L112.02 6.79025L112.028 6.79774L113.442 5.38352ZM102.561 4.03409V2.03409H100.561V4.03409H102.561ZM101.038 30V0.90909H97.0384V30H101.038ZM99.0384 2.90909H109.209V-1.09091H99.0384V2.90909ZM109.209 2.90909C111.02 2.90909 112.341 3.2242 113.283 3.72564L115.163 0.194819C113.472 -0.705266 111.451 -1.09091 109.209 -1.09091V2.90909ZM113.293 3.73089C114.301 4.26026 114.975 4.92815 115.41 5.72019L118.917 3.79686C118.063 2.24041 116.778 1.04276 115.153 0.189562L113.293 3.73089ZM115.413 5.72618C115.882 6.57482 116.129 7.53089 116.129 8.63636H120.129C120.129 6.90092 119.732 5.27177 118.914 3.79086L115.413 5.72618ZM116.129 8.63636C116.129 9.66267 115.945 10.3379 115.707 10.7738L119.217 12.6921C119.869 11.4992 120.129 10.1101 120.129 8.63636H116.129ZM115.698 10.7897C115.408 11.3318 115.051 11.7169 114.629 11.9939L116.828 15.3356C117.846 14.6657 118.644 13.7629 119.225 12.6763L115.698 10.7897ZM114.619 12.0007C114.09 12.3535 113.516 12.615 112.887 12.7864L113.94 16.6454C114.978 16.3623 115.947 15.923 116.838 15.3289L114.619 12.0007ZM111.413 14.7159V15H115.413V14.7159H111.413ZM113.286 16.9959C113.783 17.0277 114.359 17.2046 115.03 17.6285L117.166 14.2465C116.038 13.534 114.824 13.086 113.541 13.0041L113.286 16.9959ZM115.03 17.6285C115.615 17.9976 116.152 18.554 116.62 19.373L120.093 17.3884C119.349 16.0861 118.381 15.0137 117.166 14.2465L115.03 17.6285ZM116.62 19.373C117.015 20.0633 117.266 20.9989 117.266 22.2727H121.266C121.266 20.4784 120.911 18.8192 120.093 17.3884L116.62 19.373ZM117.266 22.2727C117.266 23.4157 117.009 24.3811 116.533 25.2182L120.01 27.1966C120.859 25.7042 121.266 24.0465 121.266 22.2727H117.266ZM116.533 25.2182C116.107 25.9667 115.401 26.6333 114.271 27.172L115.993 30.7826C117.723 29.9576 119.11 28.7776 120.01 27.1966L116.533 25.2182ZM114.271 27.172C113.203 27.6815 111.667 28 109.55 28V32C112.016 32 114.202 31.6367 115.993 30.7826L114.271 27.172ZM109.55 28H99.0384V32H109.55V28ZM102.561 28.875H109.55V24.875H102.561V28.875ZM109.55 28.875C112.008 28.875 114.278 28.4188 115.806 27.0105L113.095 24.0691C112.691 24.4411 111.694 24.875 109.55 24.875V28.875ZM115.806 27.0099C117.175 25.7479 117.913 24.1331 117.913 22.2727H113.913C113.913 22.9691 113.677 23.5324 113.094 24.0696L115.806 27.0099ZM117.913 22.2727C117.913 20.929 117.566 19.6625 116.874 18.5136L113.447 20.5773C113.759 21.0951 113.913 21.6468 113.913 22.2727H117.913ZM116.879 18.5221C116.178 17.3459 115.188 16.4293 113.967 15.7692L112.064 19.2876C112.7 19.6313 113.139 20.0594 113.442 20.5688L116.879 18.5221ZM113.981 15.7767C112.704 15.0731 111.26 14.7614 109.72 14.7614V18.7614C110.718 18.7614 111.471 18.961 112.05 19.2801L113.981 15.7767ZM109.72 14.7614H102.561V18.7614H109.72V14.7614ZM100.561 16.7614V26.875H104.561V16.7614H100.561ZM102.561 15.6932H109.095V11.6932H102.561V15.6932ZM109.095 15.6932C110.424 15.6932 111.686 15.4304 112.843 14.8649L111.086 11.2714C110.538 11.5393 109.888 11.6932 109.095 11.6932V15.6932ZM112.835 14.8687C114.002 14.3045 114.966 13.4845 115.677 12.4114L112.343 10.2022C112.05 10.6443 111.65 10.9985 111.094 11.2676L112.835 14.8687ZM115.668 12.4258C116.428 11.2991 116.777 10.0086 116.777 8.63636H112.777C112.777 9.30955 112.614 9.79939 112.352 10.1879L115.668 12.4258ZM116.777 8.63636C116.777 6.83677 116.128 5.24102 114.856 3.96931L112.028 6.79774C112.536 7.30633 112.777 7.87914 112.777 8.63636H116.777ZM114.863 3.97681C113.44 2.5381 111.398 2.03409 109.209 2.03409V6.03409C110.883 6.03409 111.663 6.4297 112.02 6.79023L114.863 3.97681ZM109.209 2.03409H102.561V6.03409H109.209V2.03409ZM100.561 4.03409V13.6932H104.561V4.03409H100.561ZM147.938 23.4091L146.146 22.5207L146.146 22.5207L147.938 23.4091ZM143.378 28.5795L144.441 30.2737L144.441 30.2737L143.378 28.5795ZM130.139 28.5795L129.076 30.2737L129.076 30.2737L130.139 28.5795ZM125.58 23.4091L127.371 22.5207L127.371 22.5207L125.58 23.4091ZM125.58 7.5L123.788 6.61165L125.58 7.5ZM143.378 2.32955L144.441 0.635417L144.441 0.635417L143.378 2.32955ZM147.938 7.5L146.146 8.38835L146.146 8.38835L147.938 7.5ZM144.926 9.0767L143.124 9.94346L143.128 9.95142L144.926 9.0767ZM141.531 5.14205L140.469 6.83678L140.474 6.83993L141.531 5.14205ZM131.972 5.14205L130.915 3.44415L130.91 3.44732L131.972 5.14205ZM128.577 9.0767L126.778 8.20198L126.774 8.20996L128.577 9.0767ZM128.577 21.8324L126.774 22.6991L126.778 22.7071L128.577 21.8324ZM131.972 25.767L130.91 27.4618L130.915 27.4649L131.972 25.767ZM141.531 25.767L140.474 24.0691L140.469 24.0723L141.531 25.767ZM144.926 21.8324L143.128 20.9577L143.124 20.9656L144.926 21.8324ZM147.599 15.4545C147.599 18.2841 147.089 20.6182 146.146 22.5207L149.729 24.2974C151.002 21.7302 151.599 18.7613 151.599 15.4545H147.599ZM146.146 22.5207C145.186 24.457 143.905 25.8877 142.315 26.8854L144.441 30.2737C146.714 28.8472 148.473 26.8309 149.729 24.2974L146.146 22.5207ZM142.315 26.8854C140.729 27.8802 138.898 28.3977 136.759 28.3977V32.3977C139.581 32.3977 142.163 31.7031 144.441 30.2737L142.315 26.8854ZM136.759 28.3977C134.619 28.3977 132.788 27.8802 131.202 26.8854L129.076 30.2737C131.354 31.7031 133.936 32.3977 136.759 32.3977V28.3977ZM131.202 26.8854C129.612 25.8877 128.331 24.457 127.371 22.5207L123.788 24.2974C125.044 26.8309 126.803 28.8472 129.076 30.2737L131.202 26.8854ZM127.371 22.5207C126.428 20.6182 125.918 18.2841 125.918 15.4545H121.918C121.918 18.7613 122.515 21.7302 123.788 24.2974L127.371 22.5207ZM125.918 15.4545C125.918 12.625 126.428 10.2908 127.371 8.38835L123.788 6.61165C122.515 9.17885 121.918 12.1477 121.918 15.4545H125.918ZM127.371 8.38835C128.331 6.45214 129.612 5.02142 131.202 4.02367L129.076 0.635417C126.803 2.06192 125.044 4.07817 123.788 6.61165L127.371 8.38835ZM131.202 4.02367C132.788 3.0289 134.619 2.51136 136.759 2.51136V-1.48864C133.936 -1.48864 131.354 -0.794052 129.076 0.635417L131.202 4.02367ZM136.759 2.51136C138.898 2.51136 140.729 3.0289 142.315 4.02367L144.441 0.635417C142.163 -0.794052 139.581 -1.48864 136.759 -1.48864V2.51136ZM142.315 4.02367C143.905 5.02142 145.186 6.45213 146.146 8.38835L149.729 6.61165C148.473 4.07817 146.714 2.06192 144.441 0.635417L142.315 4.02367ZM146.146 8.38835C147.089 10.2908 147.599 12.625 147.599 15.4545H151.599C151.599 12.1477 151.002 9.17885 149.729 6.61165L146.146 8.38835ZM148.19 15.4545C148.19 12.722 147.734 10.2779 146.725 8.20199L143.128 9.95142C143.804 11.3414 144.19 13.1492 144.19 15.4545H148.19ZM146.729 8.20996C145.755 6.1845 144.384 4.56225 142.588 3.44416L140.474 6.83993C141.538 7.50215 142.431 8.503 143.124 9.94345L146.729 8.20996ZM142.593 3.44732C140.838 2.34734 138.876 1.80682 136.759 1.80682V5.80682C138.164 5.80682 139.384 6.15644 140.469 6.83677L142.593 3.44732ZM136.759 1.80682C134.641 1.80682 132.677 2.34729 130.915 3.44416L133.029 6.83993C134.126 6.15649 135.353 5.80682 136.759 5.80682V1.80682ZM130.91 3.44732C129.126 4.56477 127.76 6.18358 126.778 8.20199L130.375 9.95142C131.079 8.50392 131.976 7.49962 133.034 6.83677L130.91 3.44732ZM126.774 8.20996C125.777 10.2837 125.327 12.7248 125.327 15.4545H129.327C129.327 13.1465 129.71 11.3357 130.379 9.94345L126.774 8.20996ZM125.327 15.4545C125.327 18.1843 125.777 20.6254 126.774 22.6991L130.379 20.9656C129.71 19.5734 129.327 17.7626 129.327 15.4545H125.327ZM126.778 22.7071C127.76 24.7255 129.126 26.3443 130.91 27.4618L133.034 24.0723C131.976 23.4095 131.079 22.4052 130.375 20.9577L126.778 22.7071ZM130.915 27.4649C132.677 28.5618 134.641 29.1023 136.759 29.1023V25.1023C135.353 25.1023 134.126 24.7526 133.029 24.0692L130.915 27.4649ZM136.759 29.1023C138.876 29.1023 140.838 28.5617 142.593 27.4618L140.469 24.0723C139.384 24.7526 138.164 25.1023 136.759 25.1023V29.1023ZM142.588 27.4649C144.384 26.3468 145.755 24.7246 146.729 22.6991L143.124 20.9656C142.431 22.4061 141.538 23.4069 140.474 24.0692L142.588 27.4649ZM146.725 22.7071C147.734 20.6312 148.19 18.1871 148.19 15.4545H144.19C144.19 17.7599 143.804 19.5676 143.128 20.9577L146.725 22.7071ZM178.406 23.4091L176.614 22.5207L176.614 22.5207L178.406 23.4091ZM173.847 28.5795L174.91 30.2737L174.91 30.2737L173.847 28.5795ZM160.608 28.5795L159.545 30.2737L159.545 30.2737L160.608 28.5795ZM156.048 23.4091L157.84 22.5207L157.84 22.5207L156.048 23.4091ZM156.048 7.5L154.256 6.61165L156.048 7.5ZM173.847 2.32955L174.91 0.635417L174.91 0.635417L173.847 2.32955ZM178.406 7.5L176.614 8.38835L176.614 8.38835L178.406 7.5ZM175.395 9.0767L173.592 9.94346L173.596 9.95142L175.395 9.0767ZM172 5.14205L170.938 6.83678L170.943 6.83993L172 5.14205ZM162.44 5.14205L161.383 3.44415L161.378 3.44732L162.44 5.14205ZM159.045 9.0767L157.247 8.20198L157.243 8.20996L159.045 9.0767ZM159.045 21.8324L157.243 22.6991L157.247 22.7071L159.045 21.8324ZM162.44 25.767L161.378 27.4618L161.383 27.4649L162.44 25.767ZM172 25.767L170.943 24.0691L170.938 24.0723L172 25.767ZM175.395 21.8324L173.596 20.9577L173.592 20.9656L175.395 21.8324ZM178.068 15.4545C178.068 18.2841 177.558 20.6182 176.614 22.5207L180.198 24.2974C181.471 21.7302 182.068 18.7613 182.068 15.4545H178.068ZM176.614 22.5207C175.654 24.457 174.374 25.8877 172.784 26.8854L174.91 30.2737C177.183 28.8472 178.942 26.8309 180.198 24.2974L176.614 22.5207ZM172.784 26.8854C171.198 27.8802 169.367 28.3977 167.227 28.3977V32.3977C170.05 32.3977 172.631 31.7031 174.91 30.2737L172.784 26.8854ZM167.227 28.3977C165.088 28.3977 163.256 27.8802 161.671 26.8854L159.545 30.2737C161.823 31.7031 164.404 32.3977 167.227 32.3977V28.3977ZM161.671 26.8854C160.081 25.8877 158.8 24.457 157.84 22.5207L154.256 24.2974C155.512 26.8309 157.271 28.8472 159.545 30.2737L161.671 26.8854ZM157.84 22.5207C156.897 20.6182 156.386 18.2841 156.386 15.4545H152.386C152.386 18.7613 152.984 21.7302 154.256 24.2974L157.84 22.5207ZM156.386 15.4545C156.386 12.625 156.897 10.2908 157.84 8.38835L154.256 6.61165C152.984 9.17885 152.386 12.1477 152.386 15.4545H156.386ZM157.84 8.38835C158.8 6.45214 160.081 5.02142 161.671 4.02367L159.545 0.635417C157.271 2.06192 155.512 4.07817 154.256 6.61165L157.84 8.38835ZM161.671 4.02367C163.256 3.0289 165.088 2.51136 167.227 2.51136V-1.48864C164.404 -1.48864 161.823 -0.794052 159.545 0.635417L161.671 4.02367ZM167.227 2.51136C169.367 2.51136 171.198 3.0289 172.784 4.02367L174.91 0.635417C172.631 -0.794052 170.05 -1.48864 167.227 -1.48864V2.51136ZM172.784 4.02367C174.374 5.02142 175.654 6.45213 176.614 8.38835L180.198 6.61165C178.942 4.07817 177.183 2.06192 174.91 0.635417L172.784 4.02367ZM176.614 8.38835C177.558 10.2908 178.068 12.625 178.068 15.4545H182.068C182.068 12.1477 181.471 9.17885 180.198 6.61165L176.614 8.38835ZM178.659 15.4545C178.659 12.722 178.203 10.2779 177.193 8.20199L173.596 9.95142C174.272 11.3414 174.659 13.1492 174.659 15.4545H178.659ZM177.197 8.20996C176.223 6.1845 174.853 4.56225 173.057 3.44416L170.943 6.83993C172.007 7.50215 172.9 8.503 173.592 9.94345L177.197 8.20996ZM173.062 3.44732C171.307 2.34734 169.344 1.80682 167.227 1.80682V5.80682C168.633 5.80682 169.852 6.15644 170.938 6.83677L173.062 3.44732ZM167.227 1.80682C165.11 1.80682 163.145 2.34729 161.383 3.44416L163.497 6.83993C164.595 6.15649 165.822 5.80682 167.227 5.80682V1.80682ZM161.378 3.44732C159.595 4.56477 158.229 6.18358 157.247 8.20199L160.844 9.95142C161.548 8.50392 162.445 7.49962 163.502 6.83677L161.378 3.44732ZM157.243 8.20996C156.246 10.2837 155.795 12.7248 155.795 15.4545H159.795C159.795 13.1465 160.178 11.3357 160.848 9.94345L157.243 8.20996ZM155.795 15.4545C155.795 18.1843 156.246 20.6254 157.243 22.6991L160.848 20.9656C160.178 19.5734 159.795 17.7626 159.795 15.4545H155.795ZM157.247 22.7071C158.229 24.7255 159.595 26.3443 161.378 27.4618L163.502 24.0723C162.445 23.4095 161.548 22.4052 160.844 20.9577L157.247 22.7071ZM161.383 27.4649C163.145 28.5618 165.11 29.1023 167.227 29.1023V25.1023C165.822 25.1023 164.595 24.7526 163.497 24.0692L161.383 27.4649ZM167.227 29.1023C169.344 29.1023 171.307 28.5617 173.062 27.4618L170.938 24.0723C169.852 24.7526 168.633 25.1023 167.227 25.1023V29.1023ZM173.057 27.4649C174.853 26.3468 176.223 24.7246 177.197 22.6991L173.592 20.9656C172.9 22.4061 172.007 23.4069 170.943 24.0692L173.057 27.4649ZM177.193 22.7071C178.203 20.6312 178.659 18.1871 178.659 15.4545H174.659C174.659 17.7599 174.272 19.5676 173.596 20.9577L177.193 22.7071ZM185.991 30H183.991V32H185.991V30ZM185.991 0.90909V-1.09091H183.991V0.90909H185.991ZM189.514 0.90909H191.514V-1.09091H189.514V0.90909ZM189.514 15.3409H187.514V17.3409H189.514V15.3409ZM189.855 15.3409V17.3409H190.742L191.338 16.6833L189.855 15.3409ZM202.923 0.90909V-1.09091H202.036L201.441 -0.433348L202.923 0.90909ZM207.526 0.90909L208.99 2.27169L212.119 -1.09091H207.526V0.90909ZM195.31 14.0341L193.846 12.6715L192.695 13.9079L193.721 15.2494L195.31 14.0341ZM207.526 30V32H211.574L209.114 28.7847L207.526 30ZM203.264 30L201.663 31.1978L202.263 32H203.264V30ZM193.151 16.4773L194.752 15.2794L193.284 13.3166L191.656 15.1485L193.151 16.4773ZM189.514 20.5682L188.019 19.2395L187.514 19.8078V20.5682H189.514ZM189.514 30V32H191.514V30H189.514ZM187.991 30V0.90909H183.991V30H187.991ZM185.991 2.90909H189.514V-1.09091H185.991V2.90909ZM187.514 0.90909V15.3409H191.514V0.90909H187.514ZM189.514 17.3409H189.855V13.3409H189.514V17.3409ZM191.338 16.6833L204.406 2.25153L201.441 -0.433348L188.373 13.9985L191.338 16.6833ZM202.923 2.90909H207.526V-1.09091H202.923V2.90909ZM206.062 -0.453513L193.846 12.6715L196.774 15.3967L208.99 2.27169L206.062 -0.453513ZM193.721 15.2494L205.937 31.2153L209.114 28.7847L196.898 12.8188L193.721 15.2494ZM207.526 28H203.264V32H207.526V28ZM204.866 28.8022L194.752 15.2794L191.549 17.6751L201.663 31.1978L204.866 28.8022ZM191.656 15.1485L188.019 19.2395L191.009 21.8969L194.645 17.806L191.656 15.1485ZM187.514 20.5682V30H191.514V20.5682H187.514ZM189.514 28H185.991V32H189.514V28Z" fill="black"/>
</svg>
