<svg width="80" height="20" viewBox="0 0 163 31" fill="none" xmlns="http://www.w3.org/2000/svg">
<path d="M24.5909 10C24.5909 8.97727 24.4205 7.95928 24.0795 6.94602C23.7481 5.93276 23.2273 5.00947 22.517 4.17614C21.8068 3.3428 20.893 2.67519 19.7756 2.1733C18.6676 1.6714 17.3371 1.42045 15.7841 1.42045C13.8144 1.42045 11.8968 1.96496 10.0312 3.05398C8.17519 4.14299 6.56061 5.7339 5.1875 7.8267C3.82386 9.91004 2.88636 12.4527 2.375 15.4545C1.90152 18.2765 1.93939 20.7386 2.48864 22.8409C3.03788 24.9432 4.05587 26.5767 5.54261 27.7415C7.03883 28.9062 8.95644 29.4886 11.2955 29.4886C13.2936 29.4886 15.1544 29.0009 16.8778 28.0256C18.6108 27.0502 20.0739 25.6581 21.267 23.8494C22.4602 22.0407 23.2462 19.8864 23.625 17.3864L23.9659 17.7273H13.5114L13.6818 16.8182H24.6477L24.4773 17.7273C24.0417 20.3788 23.1799 22.6515 21.892 24.5455C20.6136 26.4299 19.0417 27.8788 17.1761 28.892C15.3201 29.8958 13.303 30.3977 11.125 30.3977C8.66288 30.3977 6.62216 29.7727 5.00284 28.5227C3.39299 27.2727 2.27557 25.5256 1.65057 23.2812C1.02557 21.0369 0.964015 18.428 1.46591 15.4545C1.82576 13.2197 2.44602 11.1884 3.3267 9.3608C4.20739 7.53314 5.28693 5.96117 6.56534 4.64489C7.85322 3.31913 9.29261 2.30114 10.8835 1.59091C12.4744 0.871211 14.1648 0.511363 15.9545 0.511363C17.678 0.511363 19.1458 0.804923 20.358 1.39205C21.5701 1.97917 22.5549 2.75095 23.3125 3.70739C24.0795 4.65436 24.6383 5.68182 24.9886 6.78977C25.339 7.88826 25.5095 8.95833 25.5 10H24.5909ZM55.0881 15.4545C54.6051 18.4186 53.6723 21.0227 52.2898 23.267C50.9072 25.5114 49.2074 27.2633 47.1903 28.5227C45.1828 29.7727 42.9858 30.3977 40.5994 30.3977C38.1657 30.3977 36.1487 29.768 34.5483 28.5085C32.9574 27.2491 31.8494 25.4972 31.2244 23.2528C30.5994 21.0085 30.5237 18.4091 30.9972 15.4545C31.4991 12.4905 32.4413 9.88636 33.8239 7.64205C35.2159 5.39773 36.9205 3.65057 38.9375 2.40057C40.9545 1.1411 43.1563 0.511363 45.5426 0.511363C47.9195 0.511363 49.9081 1.13636 51.5085 2.38636C53.1184 3.63636 54.2453 5.38352 54.8892 7.62784C55.5331 9.86269 55.5994 12.4716 55.0881 15.4545ZM54.179 15.4545C54.6525 12.6326 54.6098 10.1705 54.0511 8.06818C53.4924 5.96591 52.4886 4.33239 51.0398 3.16761C49.6004 2.00284 47.7869 1.42045 45.5994 1.42045C43.3741 1.42045 41.3144 2.00757 39.4205 3.18182C37.5265 4.35606 35.9214 5.99905 34.6051 8.1108C33.2983 10.2131 32.3987 12.661 31.9062 15.4545C31.4422 18.267 31.4848 20.7244 32.0341 22.8267C32.5833 24.929 33.5824 26.5672 35.0312 27.7415C36.4896 28.9062 38.3267 29.4886 40.5426 29.4886C42.7964 29.4886 44.8703 28.8968 46.7642 27.7131C48.6676 26.5294 50.268 24.8864 51.5653 22.7841C52.8722 20.6723 53.7434 18.2292 54.179 15.4545ZM84.9709 15.4545C84.4879 18.4186 83.5552 21.0227 82.1726 23.267C80.79 25.5114 79.0902 27.2633 77.0732 28.5227C75.0656 29.7727 72.8686 30.3977 70.4822 30.3977C68.0485 30.3977 66.0315 29.768 64.4311 28.5085C62.8402 27.2491 61.7322 25.4972 61.1072 23.2528C60.4822 21.0085 60.4065 18.4091 60.88 15.4545C61.3819 12.4905 62.3241 9.88636 63.7067 7.64205C65.0987 5.39773 66.8033 3.65057 68.8203 2.40057C70.8374 1.1411 73.0391 0.511363 75.4254 0.511363C77.8023 0.511363 79.791 1.13636 81.3913 2.38636C83.0012 3.63636 84.1281 5.38352 84.772 7.62784C85.416 9.86269 85.4822 12.4716 84.9709 15.4545ZM84.0618 15.4545C84.5353 12.6326 84.4927 10.1705 83.9339 8.06818C83.3752 5.96591 82.3714 4.33239 80.9226 3.16761C79.4832 2.00284 77.6697 1.42045 75.4822 1.42045C73.2569 1.42045 71.1972 2.00757 69.3033 3.18182C67.4093 4.35606 65.8042 5.99905 64.4879 8.1108C63.1811 10.2131 62.2815 12.661 61.7891 15.4545C61.325 18.267 61.3677 20.7244 61.9169 22.8267C62.4661 24.929 63.4652 26.5672 64.9141 27.7415C66.3724 28.9062 68.2095 29.4886 70.4254 29.4886C72.6792 29.4886 74.7531 28.8968 76.647 27.7131C78.5504 26.5294 80.1508 24.8864 81.4482 22.7841C82.755 20.6723 83.6262 18.2292 84.0618 15.4545ZM113.888 10C113.888 8.97727 113.717 7.95928 113.376 6.94602C113.045 5.93276 112.524 5.00947 111.814 4.17614C111.104 3.3428 110.19 2.67519 109.072 2.1733C107.964 1.6714 106.634 1.42045 105.081 1.42045C103.111 1.42045 101.194 1.96496 99.3281 3.05398C97.4721 4.14299 95.8575 5.7339 94.4844 7.8267C93.1207 9.91004 92.1832 12.4527 91.6719 15.4545C91.1984 18.2765 91.2363 20.7386 91.7855 22.8409C92.3348 24.9432 93.3527 26.5767 94.8395 27.7415C96.3357 28.9062 98.2533 29.4886 100.592 29.4886C102.59 29.4886 104.451 29.0009 106.175 28.0256C107.908 27.0502 109.371 25.6581 110.564 23.8494C111.757 22.0407 112.543 19.8864 112.922 17.3864L113.263 17.7273H102.808L102.979 16.8182H113.945L113.774 17.7273C113.339 20.3788 112.477 22.6515 111.189 24.5455C109.911 26.4299 108.339 27.8788 106.473 28.892C104.617 29.8958 102.6 30.3977 100.422 30.3977C97.9598 30.3977 95.919 29.7727 94.2997 28.5227C92.6899 27.2727 91.5724 25.5256 90.9474 23.2812C90.3224 21.0369 90.2609 18.428 90.7628 15.4545C91.1226 13.2197 91.7429 11.1884 92.6236 9.3608C93.5043 7.53314 94.5838 5.96117 95.8622 4.64489C97.1501 3.31913 98.5895 2.30114 100.18 1.59091C101.771 0.871211 103.462 0.511363 105.251 0.511363C106.975 0.511363 108.443 0.804923 109.655 1.39205C110.867 1.97917 111.852 2.75095 112.609 3.70739C113.376 4.65436 113.935 5.68182 114.286 6.78977C114.636 7.88826 114.806 8.95833 114.797 10H113.888ZM119.555 30L124.385 0.90909H125.294L120.635 29.0909H135.18L135.01 30H119.555ZM142.055 30L146.885 0.90909H162.396L162.226 1.81818H147.624L145.464 15H159.214L159.044 15.9091H145.294L143.135 29.0909H158.135L157.964 30H142.055Z" fill="#0DB19E"/>
<path d="M24.5909 10H22.5909V12H24.5909V10ZM24.0795 6.94602L22.1787 7.56781L22.1813 7.57581L22.184 7.58379L24.0795 6.94602ZM22.517 4.17614L20.9949 5.47344L20.9949 5.47344L22.517 4.17614ZM19.7756 2.1733L18.9503 3.9951L18.9561 3.99772L19.7756 2.1733ZM10.0312 3.05398L9.02296 1.32673L9.01913 1.32898L10.0312 3.05398ZM5.1875 7.8267L3.51529 6.72956L3.5141 6.73139L5.1875 7.8267ZM2.375 15.4545L0.403395 15.1187L0.402571 15.1236L2.375 15.4545ZM2.48864 22.8409L4.42369 22.3354L4.42369 22.3354L2.48864 22.8409ZM5.54261 27.7415L4.30918 29.3159L4.31404 29.3196L5.54261 27.7415ZM16.8778 28.0256L15.8969 26.2827L15.8928 26.285L16.8778 28.0256ZM21.267 23.8494L19.5976 22.7481L19.5976 22.7481L21.267 23.8494ZM23.625 17.3864L25.0392 15.9721L22.2405 13.1734L21.6476 17.0868L23.625 17.3864ZM23.9659 17.7273V19.7273H28.7943L25.3801 16.3131L23.9659 17.7273ZM13.5114 17.7273L11.5456 17.3587L11.1015 19.7273H13.5114V17.7273ZM13.6818 16.8182V14.8182H12.022L11.7161 16.4496L13.6818 16.8182ZM24.6477 16.8182L26.6135 17.1868L27.0576 14.8182H24.6477V16.8182ZM24.4773 17.7273L22.5115 17.3587L22.5074 17.3808L22.5037 17.403L24.4773 17.7273ZM21.892 24.5455L20.2382 23.4208L20.237 23.4227L21.892 24.5455ZM17.1761 28.892L18.1275 30.6513L18.1307 30.6495L17.1761 28.892ZM5.00284 28.5227L3.77624 30.1024L3.78074 30.1059L5.00284 28.5227ZM1.65057 23.2812L3.57725 22.7447L3.57725 22.7447L1.65057 23.2812ZM1.46591 15.4545L3.43801 15.7874L3.43927 15.78L3.44048 15.7725L1.46591 15.4545ZM3.3267 9.3608L5.12844 10.229L5.12844 10.229L3.3267 9.3608ZM6.56534 4.64489L5.13078 3.25131L5.13063 3.25147L6.56534 4.64489ZM10.8835 1.59091L11.6988 3.41721L11.7079 3.41312L10.8835 1.59091ZM23.3125 3.70739L21.7447 4.94919L21.7515 4.95775L21.7584 4.96623L23.3125 3.70739ZM24.9886 6.78977L23.0817 7.39282L23.0832 7.39753L24.9886 6.78977ZM25.5 10V12H27.4819L27.4999 10.0182L25.5 10ZM26.5909 10C26.5909 8.75074 26.382 7.51764 25.9751 6.30826L22.184 7.58379C22.4589 8.40091 22.5909 9.20381 22.5909 10H26.5909ZM25.9804 6.32424C25.5658 5.05652 24.9138 3.90503 24.0392 2.87883L20.9949 5.47344C21.5407 6.11391 21.9305 6.80901 22.1787 7.56781L25.9804 6.32424ZM24.0392 2.87883C23.115 1.79437 21.9505 0.957697 20.595 0.348874L18.9561 3.99772C19.8355 4.39268 20.4987 4.89123 20.9949 5.47344L24.0392 2.87883ZM20.6008 0.351498C19.1723 -0.295593 17.5458 -0.579547 15.7841 -0.579547V3.42045C17.1284 3.42045 18.1629 3.63839 18.9503 3.99509L20.6008 0.351498ZM15.7841 -0.579547C13.4264 -0.579547 11.164 0.0768634 9.02296 1.32674L11.0395 4.78122C12.6295 3.85306 14.2024 3.42045 15.7841 3.42045V-0.579547ZM9.01913 1.32898C6.85758 2.59724 5.0297 4.42139 3.5153 6.72956L6.8597 8.92385C8.09151 7.04641 9.4928 5.68875 11.0434 4.77898L9.01913 1.32898ZM3.5141 6.73139C1.97032 9.08993 0.950884 11.9048 0.403401 15.1187L4.3466 15.7904C4.82184 13.0005 5.6774 10.7301 6.8609 8.92202L3.5141 6.73139ZM0.402571 15.1236C-0.103505 18.1398 -0.0857949 20.8992 0.553587 23.3465L4.42369 22.3354C3.96458 20.5781 3.90654 18.4132 4.34743 15.7855L0.402571 15.1236ZM0.553587 23.3465C1.19609 25.8057 2.42748 27.8417 4.30919 29.3159L6.77604 26.1671C5.68426 25.3118 4.87967 24.0807 4.42369 22.3354L0.553587 23.3465ZM4.31404 29.3196C6.23709 30.8167 8.61784 31.4886 11.2955 31.4886V27.4886C9.29504 27.4886 7.84056 26.9958 6.77119 26.1633L4.31404 29.3196ZM11.2955 31.4886C13.6356 31.4886 15.8361 30.9132 17.8629 29.7662L15.8928 26.285C14.4726 27.0887 12.9516 27.4886 11.2955 27.4886V31.4886ZM17.8588 29.7685C19.8933 28.6234 21.5841 27.0008 22.9365 24.9508L19.5976 22.7481C18.5636 24.3155 17.3283 25.477 15.8969 26.2827L17.8588 29.7685ZM22.9365 24.9508C24.3137 22.8632 25.1874 20.4249 25.6024 17.686L21.6476 17.0868C21.305 19.3478 20.6068 21.2183 19.5976 22.7481L22.9365 24.9508ZM22.2108 18.8006L22.5517 19.1415L25.3801 16.3131L25.0392 15.9721L22.2108 18.8006ZM23.9659 15.7273H13.5114V19.7273H23.9659V15.7273ZM15.4771 18.0959L15.6476 17.1868L11.7161 16.4496L11.5456 17.3587L15.4771 18.0959ZM13.6818 18.8182H24.6477V14.8182H13.6818V18.8182ZM22.682 16.4496L22.5115 17.3587L26.443 18.0959L26.6135 17.1868L22.682 16.4496ZM22.5037 17.403C22.1072 19.817 21.3367 21.8054 20.2382 23.4208L23.5459 25.6701C25.0232 23.4976 25.9762 20.9406 26.4508 18.0515L22.5037 17.403ZM20.237 23.4227C19.1246 25.0623 17.786 26.2848 16.2216 27.1346L18.1307 30.6495C20.2973 29.4728 22.1027 27.7975 23.5471 25.6683L20.237 23.4227ZM16.2247 27.1328C14.6705 27.9734 12.9819 28.3977 11.125 28.3977V32.3977C13.6241 32.3977 15.9696 31.8183 18.1275 30.6513L16.2247 27.1328ZM11.125 28.3977C9.01229 28.3977 7.42718 27.8676 6.22495 26.9395L3.78074 30.1059C5.81713 31.6779 8.31347 32.3977 11.125 32.3977V28.3977ZM6.22944 26.943C5.00628 25.9933 4.10418 24.6369 3.57725 22.7447L-0.276118 23.8178C0.446953 26.4143 1.7797 28.5522 3.77625 30.1024L6.22944 26.943ZM3.57725 22.7447C3.05067 20.8538 2.97117 18.5533 3.43801 15.7874L-0.506196 15.1217C-1.04314 18.3028 -0.999533 21.2201 -0.276118 23.8178L3.57725 22.7447ZM3.44048 15.7725C3.77311 13.7066 4.34072 11.8637 5.12844 10.229L1.52497 8.4926C0.551324 10.5132 -0.121595 12.7327 -0.508658 15.1366L3.44048 15.7725ZM5.12844 10.229C5.92559 8.57469 6.88635 7.185 8.00005 6.0383L5.13063 3.25147C3.68751 4.73735 2.48919 6.4916 1.52497 8.4926L5.12844 10.229ZM7.9999 6.03846C9.12163 4.88373 10.3538 4.01763 11.6988 3.41718L10.0682 -0.235368C8.2314 0.584643 6.58481 1.75452 5.13078 3.25131L7.9999 6.03846ZM11.7079 3.41312C13.0332 2.81358 14.4418 2.51136 15.9545 2.51136V-1.48864C13.8878 -1.48864 11.9157 -1.07116 10.0592 -0.231308L11.7079 3.41312ZM15.9545 2.51136C17.4577 2.51136 18.6108 2.76803 19.4861 3.19201L21.2298 -0.407917C19.6809 -1.15819 17.8983 -1.48864 15.9545 -1.48864V2.51136ZM19.4861 3.19201C20.4557 3.66164 21.1928 4.25244 21.7447 4.94919L24.8803 2.46558C23.917 1.24945 22.6845 0.296689 21.2298 -0.407917L19.4861 3.19201ZM21.7584 4.96623C22.3756 5.72823 22.8105 6.53514 23.0817 7.39281L26.8956 6.18673C26.466 4.82849 25.7835 3.58048 24.8666 2.44854L21.7584 4.96623ZM23.0832 7.39753C23.3759 8.31516 23.5074 9.17389 23.5001 9.98182L27.4999 10.0182C27.5115 8.74278 27.3021 7.46136 26.8941 6.18201L23.0832 7.39753ZM25.5 8H24.5909V12H25.5V8ZM55.0881 15.4545L53.1168 15.1166L53.1154 15.1248L53.1141 15.1329L55.0881 15.4545ZM52.2898 23.267L50.5869 22.218L50.5869 22.218L52.2898 23.267ZM47.1903 28.5227L48.2475 30.2205L48.2496 30.2192L47.1903 28.5227ZM34.5483 28.5085L33.3069 30.0766L33.3114 30.0802L34.5483 28.5085ZM31.2244 23.2528L33.1511 22.7163L33.1511 22.7163L31.2244 23.2528ZM30.9972 15.4545L29.0252 15.1206L29.0238 15.1293L29.0224 15.1381L30.9972 15.4545ZM33.8239 7.64205L32.1242 6.58785L32.121 6.59305L33.8239 7.64205ZM38.9375 2.40057L39.991 4.1006L39.9968 4.09701L38.9375 2.40057ZM51.5085 2.38636L50.2774 3.96256L50.2819 3.96607L51.5085 2.38636ZM54.8892 7.62784L52.9668 8.17942L52.9674 8.18158L54.8892 7.62784ZM54.179 15.4545L52.2065 15.1236L52.2048 15.134L52.2032 15.1444L54.179 15.4545ZM54.0511 8.06818L55.984 7.55448L55.984 7.55448L54.0511 8.06818ZM51.0398 3.16761L49.7817 4.72235L49.7867 4.72636L51.0398 3.16761ZM39.4205 3.18182L40.4743 4.88162L40.4743 4.88162L39.4205 3.18182ZM34.6051 8.1108L32.9078 7.05285L32.9065 7.05493L34.6051 8.1108ZM31.9062 15.4545L29.9366 15.1074L29.9347 15.1182L29.9329 15.129L31.9062 15.4545ZM32.0341 22.8267L30.099 23.3323L30.099 23.3323L32.0341 22.8267ZM35.0312 27.7415L33.772 29.2953L33.7775 29.2998L33.7831 29.3042L35.0312 27.7415ZM46.7642 27.7131L45.708 26.0147L45.7042 26.0171L46.7642 27.7131ZM51.5653 22.7841L49.8646 21.7316L49.8633 21.7338L51.5653 22.7841ZM53.1141 15.1329C52.6673 17.8748 51.8147 20.225 50.5869 22.218L53.9926 24.316C55.53 21.8205 56.5429 18.9624 57.062 15.7762L53.1141 15.1329ZM50.5869 22.218C49.3483 24.2287 47.8592 25.7472 46.1311 26.8263L48.2496 30.2192C50.5555 28.7793 52.4661 26.794 53.9926 24.316L50.5869 22.218ZM46.1332 26.8249C44.4459 27.8755 42.6157 28.3977 40.5994 28.3977V32.3977C43.3559 32.3977 45.9196 31.6699 48.2475 30.2205L46.1332 26.8249ZM40.5994 28.3977C38.5237 28.3977 36.9678 27.8676 35.7852 26.9369L33.3114 30.0802C35.3295 31.6684 37.8077 32.3977 40.5994 32.3977V28.3977ZM35.7897 26.9404C34.5783 25.9814 33.6801 24.6157 33.1511 22.7163L29.2977 23.7894C30.0188 26.3787 31.3365 28.5167 33.3069 30.0766L35.7897 26.9404ZM33.1511 22.7163C32.6221 20.8166 32.5316 18.519 32.972 15.771L29.0224 15.1381C28.5158 18.2992 28.5768 21.2004 29.2977 23.7894L33.1511 22.7163ZM32.9691 15.7885C33.434 13.0426 34.2965 10.6879 35.5267 8.69104L32.121 6.59305C30.586 9.08478 29.5641 11.9385 29.0252 15.1206L32.9691 15.7885ZM35.5235 8.69624C36.7715 6.68419 38.2647 5.17043 39.991 4.10059L37.884 0.700548C35.5762 2.13071 33.6604 4.11126 32.1243 6.58785L35.5235 8.69624ZM39.9968 4.09701C41.6949 3.03666 43.5294 2.51136 45.5426 2.51136V-1.48864C42.7831 -1.48864 40.2142 -0.754466 37.8782 0.704124L39.9968 4.09701ZM45.5426 2.51136C47.5526 2.51136 49.0864 3.03227 50.2774 3.96255L52.7396 0.810173C50.7299 -0.759541 48.2864 -1.48864 45.5426 -1.48864V2.51136ZM50.2819 3.96607C51.5092 4.91904 52.4221 6.28121 52.9668 8.17942L56.8116 7.07626C56.0684 4.48584 54.7275 2.35369 52.7351 0.806657L50.2819 3.96607ZM52.9674 8.18158C53.5066 10.0531 53.592 12.3447 53.1168 15.1166L57.0593 15.7925C57.6069 12.5985 57.5596 9.67228 56.811 7.0741L52.9674 8.18158ZM56.1514 15.7855C56.6579 12.767 56.6352 10.0046 55.984 7.55448L52.1182 8.58188C52.5845 10.3363 52.6471 12.4981 52.2065 15.1236L56.1514 15.7855ZM55.984 7.55448C55.3351 5.11278 54.1279 3.08409 52.2929 1.60886L49.7867 4.72636C50.8494 5.58069 51.6497 6.81904 52.1182 8.58188L55.984 7.55448ZM52.2979 1.61289C50.4405 0.109849 48.1582 -0.579547 45.5994 -0.579547V3.42045C47.4156 3.42045 48.7603 3.89583 49.7817 4.72234L52.2979 1.61289ZM45.5994 -0.579547C43.0011 -0.579547 40.5766 0.111826 38.3666 1.48201L40.4743 4.88162C42.0522 3.90332 43.747 3.42045 45.5994 3.42045V-0.579547ZM38.3666 1.48201C36.1827 2.83604 34.3674 4.71132 32.9078 7.05285L36.3024 9.16874C37.4754 7.28679 38.8704 5.87608 40.4743 4.88162L38.3666 1.48201ZM32.9065 7.05493C31.4468 9.40324 30.4669 12.0988 29.9366 15.1074L33.8759 15.8017C34.3304 13.2232 35.1498 11.0229 36.3037 9.16666L32.9065 7.05493ZM29.9329 15.129C29.4369 18.1358 29.4605 20.8882 30.099 23.3323L33.9691 22.3212C33.5092 20.5607 33.4476 18.3983 33.8796 15.7801L29.9329 15.129ZM30.099 23.3323C30.7376 25.7765 31.9394 27.81 33.772 29.2953L36.2905 26.1877C35.2254 25.3244 34.429 24.0814 33.9691 22.3212L30.099 23.3323ZM33.7831 29.3042C35.6592 30.8027 37.9614 31.4886 40.5426 31.4886V27.4886C38.692 27.4886 37.3199 27.0098 36.2794 26.1788L33.7831 29.3042ZM40.5426 31.4886C43.1676 31.4886 45.6093 30.7934 47.8242 29.4091L45.7042 26.0171C44.1312 27.0002 42.4252 27.4886 40.5426 27.4886V31.4886ZM47.8204 29.4114C50.0122 28.0484 51.8245 26.1725 53.2673 23.8344L49.8633 21.7338C48.7115 23.6003 47.3231 25.0103 45.708 26.0147L47.8204 29.4114ZM53.266 23.8365C54.7303 21.4704 55.6832 18.7683 56.1548 15.7647L52.2032 15.1444C51.8035 17.6901 51.014 19.8743 49.8646 21.7316L53.266 23.8365ZM84.9709 15.4545L82.9996 15.1166L82.9982 15.1248L82.9969 15.1329L84.9709 15.4545ZM82.1726 23.267L80.4698 22.218L80.4698 22.218L82.1726 23.267ZM77.0732 28.5227L78.1303 30.2205L78.1324 30.2192L77.0732 28.5227ZM64.4311 28.5085L63.1897 30.0766L63.1942 30.0802L64.4311 28.5085ZM61.1072 23.2528L63.0339 22.7163L63.0339 22.7163L61.1072 23.2528ZM60.88 15.4545L58.908 15.1206L58.9066 15.1293L58.9052 15.1381L60.88 15.4545ZM63.7067 7.64205L62.0071 6.58785L62.0039 6.59305L63.7067 7.64205ZM68.8203 2.40057L69.8739 4.1006L69.8796 4.09701L68.8203 2.40057ZM81.3913 2.38636L80.1602 3.96256L80.1647 3.96607L81.3913 2.38636ZM84.772 7.62784L82.8496 8.17942L82.8502 8.18158L84.772 7.62784ZM84.0618 15.4545L82.0894 15.1236L82.0876 15.134L82.086 15.1444L84.0618 15.4545ZM83.9339 8.06818L85.8669 7.55448L85.8669 7.55448L83.9339 8.06818ZM80.9226 3.16761L79.6645 4.72235L79.6695 4.72636L80.9226 3.16761ZM69.3033 3.18182L70.3571 4.88162L70.3571 4.88162L69.3033 3.18182ZM64.4879 8.1108L62.7906 7.05285L62.7894 7.05493L64.4879 8.1108ZM61.7891 15.4545L59.8194 15.1074L59.8175 15.1182L59.8157 15.129L61.7891 15.4545ZM61.9169 22.8267L59.9819 23.3323L59.9819 23.3323L61.9169 22.8267ZM64.9141 27.7415L63.6548 29.2953L63.6603 29.2998L63.6659 29.3042L64.9141 27.7415ZM76.647 27.7131L75.5908 26.0147L75.587 26.0171L76.647 27.7131ZM81.4482 22.7841L79.7475 21.7316L79.7462 21.7338L81.4482 22.7841ZM82.9969 15.1329C82.5502 17.8748 81.6976 20.225 80.4698 22.218L83.8754 24.316C85.4128 21.8205 86.4257 18.9624 86.9449 15.7762L82.9969 15.1329ZM80.4698 22.218C79.2311 24.2287 77.7421 25.7472 76.0139 26.8263L78.1324 30.2192C80.4383 28.7793 82.3489 26.794 83.8754 24.316L80.4698 22.218ZM76.016 26.8249C74.3287 27.8755 72.4985 28.3977 70.4822 28.3977V32.3977C73.2387 32.3977 75.8024 31.6699 78.1303 30.2205L76.016 26.8249ZM70.4822 28.3977C68.4066 28.3977 66.8506 27.8676 65.668 26.9369L63.1942 30.0802C65.2124 31.6684 67.6905 32.3977 70.4822 32.3977V28.3977ZM65.6725 26.9404C64.4611 25.9814 63.5629 24.6157 63.0339 22.7163L59.1806 23.7894C59.9016 26.3787 61.2193 28.5167 63.1897 30.0766L65.6725 26.9404ZM63.0339 22.7163C62.5049 20.8166 62.4144 18.519 62.8548 15.771L58.9052 15.1381C58.3986 18.2992 58.4596 21.2004 59.1806 23.7894L63.0339 22.7163ZM62.8519 15.7885C63.3169 13.0426 64.1793 10.6879 65.4095 8.69104L62.0039 6.59305C60.4689 9.08478 59.4469 11.9385 58.908 15.1206L62.8519 15.7885ZM65.4063 8.69624C66.6543 6.68419 68.1475 5.17043 69.8738 4.10059L67.7668 0.700548C65.459 2.13071 63.5432 4.11126 62.0071 6.58785L65.4063 8.69624ZM69.8796 4.09701C71.5777 3.03666 73.4122 2.51136 75.4254 2.51136V-1.48864C72.6659 -1.48864 70.097 -0.754466 67.761 0.704124L69.8796 4.09701ZM75.4254 2.51136C77.4354 2.51136 78.9692 3.03227 80.1602 3.96255L82.6224 0.810173C80.6127 -0.759541 78.1692 -1.48864 75.4254 -1.48864V2.51136ZM80.1647 3.96607C81.3921 4.91904 82.3049 6.28121 82.8496 8.17942L86.6945 7.07626C85.9512 4.48584 84.6103 2.35369 82.6179 0.806657L80.1647 3.96607ZM82.8502 8.18158C83.3895 10.0531 83.4748 12.3447 82.9996 15.1166L86.9421 15.7925C87.4897 12.5985 87.4425 9.67228 86.6938 7.0741L82.8502 8.18158ZM86.0342 15.7855C86.5407 12.767 86.518 10.0046 85.8669 7.55448L82.001 8.58188C82.4673 10.3363 82.5299 12.4981 82.0894 15.1236L86.0342 15.7855ZM85.8669 7.55448C85.2179 5.11278 84.0107 3.08409 82.1757 1.60886L79.6695 4.72636C80.7322 5.58069 81.5325 6.81904 82.001 8.58188L85.8669 7.55448ZM82.1807 1.61289C80.3233 0.109849 78.0411 -0.579547 75.4822 -0.579547V3.42045C77.2984 3.42045 78.6431 3.89583 79.6645 4.72234L82.1807 1.61289ZM75.4822 -0.579547C72.8839 -0.579547 70.4594 0.111826 68.2494 1.48201L70.3571 4.88162C71.935 3.90332 73.6298 3.42045 75.4822 3.42045V-0.579547ZM68.2494 1.48201C66.0655 2.83604 64.2502 4.71132 62.7906 7.05285L66.1852 9.16874C67.3583 7.28679 68.7532 5.87608 70.3571 4.88162L68.2494 1.48201ZM62.7894 7.05493C61.3296 9.40324 60.3498 12.0988 59.8194 15.1074L63.7587 15.8017C64.2132 13.2232 65.0326 11.0229 66.1865 9.16666L62.7894 7.05493ZM59.8157 15.129C59.3197 18.1358 59.3433 20.8882 59.9819 23.3323L63.852 22.3212C63.392 20.5607 63.3304 18.3983 63.7624 15.7801L59.8157 15.129ZM59.9819 23.3323C60.6204 25.7765 61.8222 27.81 63.6548 29.2953L66.1733 26.1877C65.1082 25.3244 64.3118 24.0814 63.852 22.3212L59.9819 23.3323ZM63.6659 29.3042C65.542 30.8027 67.8443 31.4886 70.4254 31.4886V27.4886C68.5748 27.4886 67.2028 27.0098 66.1622 26.1788L63.6659 29.3042ZM70.4254 31.4886C73.0504 31.4886 75.4922 30.7934 77.707 29.4091L75.587 26.0171C74.014 27.0002 72.308 27.4886 70.4254 27.4886V31.4886ZM77.7032 29.4114C79.895 28.0484 81.7073 26.1725 83.1502 23.8344L79.7462 21.7338C78.5943 23.6003 77.2059 25.0103 75.5908 26.0147L77.7032 29.4114ZM83.1488 23.8365C84.6131 21.4704 85.566 18.7683 86.0376 15.7647L82.086 15.1444C81.6863 17.6901 80.8968 19.8743 79.7475 21.7316L83.1488 23.8365ZM113.888 10H111.888V12H113.888V10ZM113.376 6.94602L111.476 7.56781L111.478 7.57581L111.481 7.58379L113.376 6.94602ZM111.814 4.17614L110.292 5.47344L110.292 5.47344L111.814 4.17614ZM109.072 2.1733L108.247 3.9951L108.253 3.99772L109.072 2.1733ZM99.3281 3.05398L98.3198 1.32673L98.316 1.32898L99.3281 3.05398ZM94.4844 7.8267L92.8122 6.72956L92.811 6.73139L94.4844 7.8267ZM91.6719 15.4545L89.7003 15.1187L89.6994 15.1236L91.6719 15.4545ZM91.7855 22.8409L93.7206 22.3354L93.7206 22.3354L91.7855 22.8409ZM94.8395 27.7415L93.6061 29.3159L93.6109 29.3196L94.8395 27.7415ZM106.175 28.0256L105.194 26.2827L105.19 26.285L106.175 28.0256ZM110.564 23.8494L108.894 22.7481L108.894 22.7481L110.564 23.8494ZM112.922 17.3864L114.336 15.9721L111.537 13.1734L110.944 17.0868L112.922 17.3864ZM113.263 17.7273V19.7273H118.091L114.677 16.3131L113.263 17.7273ZM102.808 17.7273L100.842 17.3587L100.398 19.7273H102.808V17.7273ZM102.979 16.8182V14.8182H101.319L101.013 16.4496L102.979 16.8182ZM113.945 16.8182L115.91 17.1868L116.354 14.8182H113.945V16.8182ZM113.774 17.7273L111.808 17.3587L111.804 17.3808L111.801 17.403L113.774 17.7273ZM111.189 24.5455L109.535 23.4208L109.534 23.4227L111.189 24.5455ZM106.473 28.892L107.424 30.6513L107.428 30.6495L106.473 28.892ZM94.2997 28.5227L93.0731 30.1024L93.0776 30.1059L94.2997 28.5227ZM90.9474 23.2812L92.8741 22.7447L92.8741 22.7447L90.9474 23.2812ZM90.7628 15.4545L92.7349 15.7874L92.7361 15.78L92.7374 15.7725L90.7628 15.4545ZM92.6236 9.3608L94.4253 10.229L94.4253 10.229L92.6236 9.3608ZM95.8622 4.64489L94.4277 3.25131L94.4275 3.25147L95.8622 4.64489ZM100.18 1.59091L100.996 3.41721L101.005 3.41312L100.18 1.59091ZM112.609 3.70739L111.042 4.94919L111.048 4.95775L111.055 4.96623L112.609 3.70739ZM114.286 6.78977L112.379 7.39282L112.38 7.39753L114.286 6.78977ZM114.797 10V12H116.779L116.797 10.0182L114.797 10ZM115.888 10C115.888 8.75074 115.679 7.51764 115.272 6.30826L111.481 7.58379C111.756 8.40091 111.888 9.20381 111.888 10H115.888ZM115.277 6.32424C114.863 5.05652 114.211 3.90503 113.336 2.87883L110.292 5.47344C110.838 6.11391 111.227 6.80901 111.476 7.56781L115.277 6.32424ZM113.336 2.87883C112.412 1.79437 111.247 0.957697 109.892 0.348874L108.253 3.99772C109.132 4.39268 109.796 4.89123 110.292 5.47344L113.336 2.87883ZM109.898 0.351498C108.469 -0.295593 106.843 -0.579547 105.081 -0.579547V3.42045C106.425 3.42045 107.46 3.63839 108.247 3.99509L109.898 0.351498ZM105.081 -0.579547C102.723 -0.579547 100.461 0.0768634 98.3198 1.32674L100.336 4.78122C101.926 3.85306 103.499 3.42045 105.081 3.42045V-0.579547ZM98.316 1.32898C96.1545 2.59724 94.3266 4.42139 92.8122 6.72956L96.1566 8.92385C97.3884 7.04641 98.7897 5.68875 100.34 4.77898L98.316 1.32898ZM92.811 6.73139C91.2672 9.08993 90.2478 11.9048 89.7003 15.1187L93.6435 15.7904C94.1187 13.0005 94.9743 10.7301 96.1578 8.92202L92.811 6.73139ZM89.6994 15.1236C89.1934 18.1398 89.2111 20.8992 89.8505 23.3465L93.7206 22.3354C93.2615 20.5781 93.2034 18.4132 93.6443 15.7855L89.6994 15.1236ZM89.8505 23.3465C90.493 25.8057 91.7244 27.8417 93.6061 29.3159L96.0729 26.1671C94.9811 25.3118 94.1765 24.0807 93.7206 22.3354L89.8505 23.3465ZM93.6109 29.3196C95.534 30.8167 97.9147 31.4886 100.592 31.4886V27.4886C98.5919 27.4886 97.1374 26.9958 96.0681 26.1633L93.6109 29.3196ZM100.592 31.4886C102.932 31.4886 105.133 30.9132 107.16 29.7662L105.19 26.285C103.769 27.0887 102.248 27.4886 100.592 27.4886V31.4886ZM107.156 29.7685C109.19 28.6234 110.881 27.0008 112.233 24.9508L108.894 22.7481C107.86 24.3155 106.625 25.477 105.194 26.2827L107.156 29.7685ZM112.233 24.9508C113.611 22.8632 114.484 20.4249 114.899 17.686L110.944 17.0868C110.602 19.3478 109.904 21.2183 108.894 22.7481L112.233 24.9508ZM111.508 18.8006L111.849 19.1415L114.677 16.3131L114.336 15.9721L111.508 18.8006ZM113.263 15.7273H102.808V19.7273H113.263V15.7273ZM104.774 18.0959L104.944 17.1868L101.013 16.4496L100.842 17.3587L104.774 18.0959ZM102.979 18.8182H113.945V14.8182H102.979V18.8182ZM111.979 16.4496L111.808 17.3587L115.74 18.0959L115.91 17.1868L111.979 16.4496ZM111.801 17.403C111.404 19.817 110.634 21.8054 109.535 23.4208L112.843 25.6701C114.32 23.4976 115.273 20.9406 115.748 18.0515L111.801 17.403ZM109.534 23.4227C108.421 25.0623 107.083 26.2848 105.518 27.1346L107.428 30.6495C109.594 29.4728 111.4 27.7975 112.844 25.6683L109.534 23.4227ZM105.522 27.1328C103.967 27.9734 102.279 28.3977 100.422 28.3977V32.3977C102.921 32.3977 105.267 31.8183 107.424 30.6513L105.522 27.1328ZM100.422 28.3977C98.3092 28.3977 96.7241 27.8676 95.5218 26.9395L93.0776 30.1059C95.114 31.6779 97.6103 32.3977 100.422 32.3977V28.3977ZM95.5263 26.943C94.3032 25.9933 93.4011 24.6369 92.8741 22.7447L89.0208 23.8178C89.7438 26.4143 91.0766 28.5522 93.0731 30.1024L95.5263 26.943ZM92.8741 22.7447C92.3475 20.8538 92.268 18.5533 92.7349 15.7874L88.7907 15.1217C88.2537 18.3028 88.2973 21.2201 89.0208 23.8178L92.8741 22.7447ZM92.7374 15.7725C93.07 13.7066 93.6376 11.8637 94.4253 10.229L90.8218 8.4926C89.8482 10.5132 89.1753 12.7327 88.7882 15.1366L92.7374 15.7725ZM94.4253 10.229C95.2225 8.57469 96.1832 7.185 97.2969 6.0383L94.4275 3.25147C92.9844 4.73735 91.7861 6.4916 90.8218 8.4926L94.4253 10.229ZM97.2968 6.03846C98.4185 4.88373 99.6507 4.01763 100.996 3.41718L99.3651 -0.235368C97.5283 0.584643 95.8817 1.75452 94.4277 3.25131L97.2968 6.03846ZM101.005 3.41312C102.33 2.81358 103.739 2.51136 105.251 2.51136V-1.48864C103.185 -1.48864 101.213 -1.07116 99.3561 -0.231308L101.005 3.41312ZM105.251 2.51136C106.755 2.51136 107.908 2.76803 108.783 3.19201L110.527 -0.407917C108.978 -1.15819 107.195 -1.48864 105.251 -1.48864V2.51136ZM108.783 3.19201C109.753 3.66164 110.49 4.25244 111.042 4.94919L114.177 2.46558C113.214 1.24945 111.981 0.296689 110.527 -0.407917L108.783 3.19201ZM111.055 4.96623C111.672 5.72823 112.107 6.53514 112.379 7.39281L116.192 6.18673C115.763 4.82849 115.08 3.58048 114.164 2.44854L111.055 4.96623ZM112.38 7.39753C112.673 8.31516 112.804 9.17389 112.797 9.98182L116.797 10.0182C116.808 8.74278 116.599 7.46136 116.191 6.18201L112.38 7.39753ZM114.797 8H113.888V12H114.797V8ZM119.555 30L117.582 29.6725L117.196 32H119.555V30ZM124.385 0.90909V-1.09091H122.69L122.412 0.581542L124.385 0.90909ZM125.294 0.90909L127.267 1.23531L127.652 -1.09091H125.294V0.90909ZM120.635 29.0909L118.662 28.7647L118.277 31.0909H120.635V29.0909ZM135.18 29.0909L137.146 29.4595L137.59 27.0909H135.18V29.0909ZM135.01 30V32H136.67L136.976 30.3686L135.01 30ZM121.528 30.3275L126.358 1.23664L122.412 0.581542L117.582 29.6725L121.528 30.3275ZM124.385 2.90909H125.294V-1.09091H124.385V2.90909ZM123.321 0.582873L118.662 28.7647L122.608 29.4171L127.267 1.23531L123.321 0.582873ZM120.635 31.0909H135.18V27.0909H120.635V31.0909ZM133.215 28.7223L133.044 29.6314L136.976 30.3686L137.146 29.4595L133.215 28.7223ZM135.01 28H119.555V32H135.01V28ZM142.055 30L140.082 29.6725L139.696 32H142.055V30ZM146.885 0.90909V-1.09091H145.19L144.912 0.581542L146.885 0.90909ZM162.396 0.90909L164.362 1.27767L164.806 -1.09091H162.396V0.90909ZM162.226 1.81818V3.81818H163.886L164.192 2.18676L162.226 1.81818ZM147.624 1.81818V-0.18182H145.925L145.65 1.4949L147.624 1.81818ZM145.464 15L143.491 14.6767L143.11 17H145.464V15ZM159.214 15L161.18 15.3686L161.624 13H159.214V15ZM159.044 15.9091V17.9091H160.704L161.01 16.2777L159.044 15.9091ZM145.294 15.9091V13.9091H143.595L143.32 15.5858L145.294 15.9091ZM143.135 29.0909L141.161 28.7676L140.781 31.0909H143.135V29.0909ZM158.135 29.0909L160.101 29.4595L160.545 27.0909H158.135V29.0909ZM157.964 30V32H159.624L159.93 30.3686L157.964 30ZM144.028 30.3275L148.858 1.23664L144.912 0.581542L140.082 29.6725L144.028 30.3275ZM146.885 2.90909H162.396V-1.09091H146.885V2.90909ZM160.431 0.540512L160.26 1.4496L164.192 2.18676L164.362 1.27767L160.431 0.540512ZM162.226 -0.18182H147.624V3.81818H162.226V-0.18182ZM145.65 1.4949L143.491 14.6767L147.438 15.3233L149.597 2.14146L145.65 1.4949ZM145.464 17H159.214V13H145.464V17ZM157.249 14.6314L157.078 15.5405L161.01 16.2777L161.18 15.3686L157.249 14.6314ZM159.044 13.9091H145.294V17.9091H159.044V13.9091ZM143.32 15.5858L141.161 28.7676L145.109 29.4142L147.268 16.2324L143.32 15.5858ZM143.135 31.0909H158.135V27.0909H143.135V31.0909ZM156.169 28.7223L155.999 29.6314L159.93 30.3686L160.101 29.4595L156.169 28.7223ZM157.964 28H142.055V32H157.964V28Z" fill="#064448"/>
</svg>
