<svg width="80" height="20" viewBox="0 0 158 30" fill="none" xmlns="http://www.w3.org/2000/svg">
<path d="M23.5909 0.90909V30H20.1818L4.32955 7.15909H4.04545V30H0.522727V0.90909H3.93182L19.8409 23.8068H20.125V0.90909H23.5909ZM30.6399 30V0.90909H48.1967V4.03409H34.1626V13.8636H47.2876V16.9886H34.1626V26.875H48.424V30H30.6399ZM52.9553 4.03409V0.90909H74.7734V4.03409H65.6257V30H62.103V4.03409H52.9553ZM80.2102 30V0.90909H97.6534V4.03409H83.733V13.8636H96.3466V16.9886H83.733V30H80.2102ZM103.687 30V0.90909H107.21V26.875H120.732V30H103.687ZM129.71 0.90909V30H126.187V0.90909H129.71ZM138.477 0.90909L145.977 13.0114H146.205L153.705 0.90909H157.852L148.705 15.4545L157.852 30H153.705L146.205 18.125H145.977L138.477 30H134.33L143.705 15.4545L134.33 0.90909H138.477Z" fill="#12730A" fill-opacity="0.63"/>
<path d="M23.5909 0.90909H25.5909V-1.09091H23.5909V0.90909ZM23.5909 30V32H25.5909V30H23.5909ZM20.1818 30L18.5388 31.1403L19.1354 32H20.1818V30ZM4.32955 7.15909L5.9726 6.01876L5.37597 5.15909H4.32955V7.15909ZM4.04545 7.15909V5.15909H2.04545V7.15909H4.04545ZM4.04545 30V32H6.04545V30H4.04545ZM0.522727 30H-1.47727V32H0.522727V30ZM0.522727 0.90909V-1.09091H-1.47727V0.90909H0.522727ZM3.93182 0.90909L5.57429 -0.232083L4.97759 -1.09091H3.93182V0.90909ZM19.8409 23.8068L18.1984 24.948L18.7951 25.8068H19.8409V23.8068ZM20.125 23.8068V25.8068H22.125V23.8068H20.125ZM20.125 0.90909V-1.09091H18.125V0.90909H20.125ZM21.5909 0.90909V30H25.5909V0.90909H21.5909ZM23.5909 28H20.1818V32H23.5909V28ZM21.8249 28.8597L5.9726 6.01876L2.68649 8.29942L18.5388 31.1403L21.8249 28.8597ZM4.32955 5.15909H4.04545V9.15909H4.32955V5.15909ZM2.04545 7.15909V30H6.04545V7.15909H2.04545ZM4.04545 28H0.522727V32H4.04545V28ZM2.52273 30V0.90909H-1.47727V30H2.52273ZM0.522727 2.90909H3.93182V-1.09091H0.522727V2.90909ZM2.28934 2.05026L18.1984 24.948L21.4834 22.6656L5.57429 -0.232083L2.28934 2.05026ZM19.8409 25.8068H20.125V21.8068H19.8409V25.8068ZM22.125 23.8068V0.90909H18.125V23.8068H22.125ZM20.125 2.90909H23.5909V-1.09091H20.125V2.90909ZM30.6399 30H28.6399V32H30.6399V30ZM30.6399 0.90909V-1.09091H28.6399V0.90909H30.6399ZM48.1967 0.90909H50.1967V-1.09091H48.1967V0.90909ZM48.1967 4.03409V6.03409H50.1967V4.03409H48.1967ZM34.1626 4.03409V2.03409H32.1626V4.03409H34.1626ZM34.1626 13.8636H32.1626V15.8636H34.1626V13.8636ZM47.2876 13.8636H49.2876V11.8636H47.2876V13.8636ZM47.2876 16.9886V18.9886H49.2876V16.9886H47.2876ZM34.1626 16.9886V14.9886H32.1626V16.9886H34.1626ZM34.1626 26.875H32.1626V28.875H34.1626V26.875ZM48.424 26.875H50.424V24.875H48.424V26.875ZM48.424 30V32H50.424V30H48.424ZM32.6399 30V0.90909H28.6399V30H32.6399ZM30.6399 2.90909H48.1967V-1.09091H30.6399V2.90909ZM46.1967 0.90909V4.03409H50.1967V0.90909H46.1967ZM48.1967 2.03409H34.1626V6.03409H48.1967V2.03409ZM32.1626 4.03409V13.8636H36.1626V4.03409H32.1626ZM34.1626 15.8636H47.2876V11.8636H34.1626V15.8636ZM45.2876 13.8636V16.9886H49.2876V13.8636H45.2876ZM47.2876 14.9886H34.1626V18.9886H47.2876V14.9886ZM32.1626 16.9886V26.875H36.1626V16.9886H32.1626ZM34.1626 28.875H48.424V24.875H34.1626V28.875ZM46.424 26.875V30H50.424V26.875H46.424ZM48.424 28H30.6399V32H48.424V28ZM52.9553 4.03409H50.9553V6.03409H52.9553V4.03409ZM52.9553 0.90909V-1.09091H50.9553V0.90909H52.9553ZM74.7734 0.90909H76.7734V-1.09091H74.7734V0.90909ZM74.7734 4.03409V6.03409H76.7734V4.03409H74.7734ZM65.6257 4.03409V2.03409H63.6257V4.03409H65.6257ZM65.6257 30V32H67.6257V30H65.6257ZM62.103 30H60.103V32H62.103V30ZM62.103 4.03409H64.103V2.03409H62.103V4.03409ZM54.9553 4.03409V0.90909H50.9553V4.03409H54.9553ZM52.9553 2.90909H74.7734V-1.09091H52.9553V2.90909ZM72.7734 0.90909V4.03409H76.7734V0.90909H72.7734ZM74.7734 2.03409H65.6257V6.03409H74.7734V2.03409ZM63.6257 4.03409V30H67.6257V4.03409H63.6257ZM65.6257 28H62.103V32H65.6257V28ZM64.103 30V4.03409H60.103V30H64.103ZM62.103 2.03409H52.9553V6.03409H62.103V2.03409ZM80.2102 30H78.2102V32H80.2102V30ZM80.2102 0.90909V-1.09091H78.2102V0.90909H80.2102ZM97.6534 0.90909H99.6534V-1.09091H97.6534V0.90909ZM97.6534 4.03409V6.03409H99.6534V4.03409H97.6534ZM83.733 4.03409V2.03409H81.733V4.03409H83.733ZM83.733 13.8636H81.733V15.8636H83.733V13.8636ZM96.3466 13.8636H98.3466V11.8636H96.3466V13.8636ZM96.3466 16.9886V18.9886H98.3466V16.9886H96.3466ZM83.733 16.9886V14.9886H81.733V16.9886H83.733ZM83.733 30V32H85.733V30H83.733ZM82.2102 30V0.90909H78.2102V30H82.2102ZM80.2102 2.90909H97.6534V-1.09091H80.2102V2.90909ZM95.6534 0.90909V4.03409H99.6534V0.90909H95.6534ZM97.6534 2.03409H83.733V6.03409H97.6534V2.03409ZM81.733 4.03409V13.8636H85.733V4.03409H81.733ZM83.733 15.8636H96.3466V11.8636H83.733V15.8636ZM94.3466 13.8636V16.9886H98.3466V13.8636H94.3466ZM96.3466 14.9886H83.733V18.9886H96.3466V14.9886ZM81.733 16.9886V30H85.733V16.9886H81.733ZM83.733 28H80.2102V32H83.733V28ZM103.687 30H101.687V32H103.687V30ZM103.687 0.90909V-1.09091H101.687V0.90909H103.687ZM107.21 0.90909H109.21V-1.09091H107.21V0.90909ZM107.21 26.875H105.21V28.875H107.21V26.875ZM120.732 26.875H122.732V24.875H120.732V26.875ZM120.732 30V32H122.732V30H120.732ZM105.687 30V0.90909H101.687V30H105.687ZM103.687 2.90909H107.21V-1.09091H103.687V2.90909ZM105.21 0.90909V26.875H109.21V0.90909H105.21ZM107.21 28.875H120.732V24.875H107.21V28.875ZM118.732 26.875V30H122.732V26.875H118.732ZM120.732 28H103.687V32H120.732V28ZM129.71 0.90909H131.71V-1.09091H129.71V0.90909ZM129.71 30V32H131.71V30H129.71ZM126.187 30H124.187V32H126.187V30ZM126.187 0.90909V-1.09091H124.187V0.90909H126.187ZM127.71 0.90909V30H131.71V0.90909H127.71ZM129.71 28H126.187V32H129.71V28ZM128.187 30V0.90909H124.187V30H128.187ZM126.187 2.90909H129.71V-1.09091H126.187V2.90909ZM138.477 0.90909L140.177 -0.144443L139.591 -1.09091H138.477V0.90909ZM145.977 13.0114L144.277 14.0649L144.864 15.0114H145.977V13.0114ZM146.205 13.0114V15.0114H147.318L147.905 14.0649L146.205 13.0114ZM153.705 0.90909V-1.09091H152.591L152.005 -0.144443L153.705 0.90909ZM157.852 0.90909L159.545 1.97384L161.473 -1.09091H157.852V0.90909ZM148.705 15.4545L147.012 14.3898L146.342 15.4545L147.012 16.5193L148.705 15.4545ZM157.852 30V32H161.473L159.545 28.9353L157.852 30ZM153.705 30L152.014 31.068L152.602 32H153.705V30ZM146.205 18.125L147.896 17.057L147.307 16.125H146.205V18.125ZM145.977 18.125V16.125H144.875L144.286 17.057L145.977 18.125ZM138.477 30V32H139.58L140.168 31.068L138.477 30ZM134.33 30L132.648 28.9165L130.661 32H134.33V30ZM143.705 15.4545L145.386 16.5381L146.084 15.4545L145.386 14.371L143.705 15.4545ZM134.33 0.90909V-1.09091H130.661L132.648 1.9926L134.33 0.90909ZM136.777 1.96262L144.277 14.0649L147.677 11.9578L140.177 -0.144443L136.777 1.96262ZM145.977 15.0114H146.205V11.0114H145.977V15.0114ZM147.905 14.0649L155.405 1.96262L152.005 -0.144443L144.505 11.9578L147.905 14.0649ZM153.705 2.90909H157.852V-1.09091H153.705V2.90909ZM156.159 -0.155659L147.012 14.3898L150.398 16.5193L159.545 1.97384L156.159 -0.155659ZM147.012 16.5193L156.159 31.0647L159.545 28.9353L150.398 14.3898L147.012 16.5193ZM157.852 28H153.705V32H157.852V28ZM155.396 28.932L147.896 17.057L144.514 19.193L152.014 31.068L155.396 28.932ZM146.205 16.125H145.977V20.125H146.205V16.125ZM144.286 17.057L136.786 28.932L140.168 31.068L147.668 19.193L144.286 17.057ZM138.477 28H134.33V32H138.477V28ZM136.011 31.0835L145.386 16.5381L142.023 14.371L132.648 28.9165L136.011 31.0835ZM145.386 14.371L136.011 -0.174416L132.648 1.9926L142.023 16.5381L145.386 14.371ZM134.33 2.90909H138.477V-1.09091H134.33V2.90909Z" fill="black"/>
</svg>
