<svg width="80" height="20" viewBox="0 0 141 30" fill="none" xmlns="http://www.w3.org/2000/svg">
<path d="M0.522727 30V0.90909H10.3523C12.6345 0.90909 14.5 1.32102 15.9489 2.14489C17.4072 2.95928 18.4867 4.0625 19.1875 5.45455C19.8883 6.84659 20.2386 8.39962 20.2386 10.1136C20.2386 11.8277 19.8883 13.3854 19.1875 14.7869C18.4962 16.1884 17.4261 17.3059 15.9773 18.1392C14.5284 18.9631 12.6723 19.375 10.4091 19.375H3.36364V16.25H10.2955C11.858 16.25 13.1127 15.9801 14.0597 15.4403C15.0066 14.9006 15.6932 14.1714 16.1193 13.2528C16.5549 12.3248 16.7727 11.2784 16.7727 10.1136C16.7727 8.94886 16.5549 7.9072 16.1193 6.98864C15.6932 6.07008 15.0019 5.35038 14.0455 4.82955C13.089 4.29924 11.8201 4.03409 10.2386 4.03409H4.04545V30H0.522727ZM24.1378 30H20.4446L31.1264 0.90909H34.7628L45.4446 30H41.7514L33.0582 5.51136H32.831L24.1378 30ZM25.5014 18.6364H40.3878V21.7614H25.5014V18.6364ZM44.5071 0.90909H48.5412L56.6094 14.4886H56.9503L65.0185 0.90909H69.0526L58.5412 18.0114V30H55.0185V18.0114L44.5071 0.90909ZM73.6087 30V0.90909H83.4382C85.7204 0.90909 87.5859 1.32102 89.0348 2.14489C90.4931 2.95928 91.5727 4.0625 92.2734 5.45455C92.9742 6.84659 93.3246 8.39962 93.3246 10.1136C93.3246 11.8277 92.9742 13.3854 92.2734 14.7869C91.5822 16.1884 90.5121 17.3059 89.0632 18.1392C87.6143 18.9631 85.7583 19.375 83.495 19.375H76.4496V16.25H83.3814C84.9439 16.25 86.1986 15.9801 87.1456 15.4403C88.0926 14.9006 88.7791 14.1714 89.2053 13.2528C89.6409 12.3248 89.8587 11.2784 89.8587 10.1136C89.8587 8.94886 89.6409 7.9072 89.2053 6.98864C88.7791 6.07008 88.0878 5.35038 87.1314 4.82955C86.175 4.29924 84.906 4.03409 83.3246 4.03409H77.1314V30H73.6087ZM97.2237 30H93.5305L104.212 0.90909H107.849L118.531 30H114.837L106.144 5.51136H105.917L97.2237 30ZM98.5874 18.6364H113.474V21.7614H98.5874V18.6364ZM123.062 30V0.90909H126.585V26.875H140.107V30H123.062Z" fill="#522828" fill-opacity="0.63"/>
<path d="M0.522727 30H-1.47727V32H0.522727V30ZM0.522727 0.90909V-1.09091H-1.47727V0.90909H0.522727ZM15.9489 2.14489L14.9603 3.88347L14.967 3.88729L14.9737 3.89106L15.9489 2.14489ZM19.1875 5.45455L17.4011 6.35383L17.4011 6.35383L19.1875 5.45455ZM19.1875 14.7869L17.3986 13.8925L17.3938 13.9022L19.1875 14.7869ZM15.9773 18.1392L16.9659 19.8778L16.9744 19.8729L15.9773 18.1392ZM3.36364 19.375H1.36364V21.375H3.36364V19.375ZM3.36364 16.25V14.25H1.36364V16.25H3.36364ZM14.0597 15.4403L13.0693 13.7028L13.0693 13.7028L14.0597 15.4403ZM16.1193 13.2528L14.3088 12.403L14.305 12.4112L16.1193 13.2528ZM16.1193 6.98864L14.305 7.83031L14.3086 7.83797L14.3122 7.84561L16.1193 6.98864ZM14.0455 4.82955L13.0756 6.57868L13.0823 6.58236L13.089 6.586L14.0455 4.82955ZM4.04545 4.03409V2.03409H2.04545V4.03409H4.04545ZM4.04545 30V32H6.04545V30H4.04545ZM2.52273 30V0.90909H-1.47727V30H2.52273ZM0.522727 2.90909H10.3523V-1.09091H0.522727V2.90909ZM10.3523 2.90909C12.4103 2.90909 13.9038 3.28271 14.9603 3.88347L16.9375 0.406305C15.0962 -0.640666 12.8587 -1.09091 10.3523 -1.09091V2.90909ZM14.9737 3.89106C16.1094 4.52526 16.8931 5.34481 17.4011 6.35383L20.9739 4.55526C20.0803 2.78019 18.705 1.3933 16.924 0.398714L14.9737 3.89106ZM17.4011 6.35383C17.9478 7.43993 18.2386 8.68027 18.2386 10.1136H22.2386C22.2386 8.11897 21.8287 6.25325 20.9739 4.55526L17.4011 6.35383ZM18.2386 10.1136C18.2386 11.5468 17.9479 12.7941 17.3986 13.8925L20.9764 15.6814C21.8286 13.9768 22.2386 12.1085 22.2386 10.1136H18.2386ZM17.3938 13.9022C16.8904 14.9229 16.1103 15.7555 14.9801 16.4055L16.9744 19.8729C18.742 18.8563 20.102 17.454 20.9812 15.6716L17.3938 13.9022ZM14.9887 16.4006C13.93 17.0026 12.4447 17.375 10.4091 17.375V21.375C12.9 21.375 15.1268 20.9235 16.9659 19.8778L14.9887 16.4006ZM10.4091 17.375H3.36364V21.375H10.4091V17.375ZM5.36364 19.375V16.25H1.36364V19.375H5.36364ZM3.36364 18.25H10.2955V14.25H3.36364V18.25ZM10.2955 18.25C12.0636 18.25 13.6984 17.9483 15.0501 17.1779L13.0693 13.7028C12.527 14.0119 11.6523 14.25 10.2955 14.25V18.25ZM15.0501 17.1779C16.3289 16.4489 17.319 15.4194 17.9336 14.0945L14.305 12.4112C14.0674 12.9235 13.6843 13.3522 13.0693 13.7028L15.0501 17.1779ZM17.9298 14.1027C18.5062 12.8747 18.7727 11.5321 18.7727 10.1136H14.7727C14.7727 11.0247 14.6037 11.7749 14.3088 12.403L17.9298 14.1027ZM18.7727 10.1136C18.7727 8.69564 18.5063 7.35453 17.9264 6.13166L14.3122 7.84561C14.6035 8.45986 14.7727 9.20208 14.7727 10.1136H18.7727ZM17.9336 6.14696C17.3131 4.80936 16.3048 3.78258 15.0019 3.07309L13.089 6.586C13.699 6.91818 14.0733 7.33079 14.305 7.83031L17.9336 6.14696ZM15.0153 3.08041C13.6589 2.32837 12.0178 2.03409 10.2386 2.03409V6.03409C11.6224 6.03409 12.5191 6.27011 13.0756 6.57868L15.0153 3.08041ZM10.2386 2.03409H4.04545V6.03409H10.2386V2.03409ZM2.04545 4.03409V30H6.04545V4.03409H2.04545ZM4.04545 28H0.522727V32H4.04545V28ZM24.1378 30V32H25.5501L26.0226 30.6691L24.1378 30ZM20.4446 30L18.5672 29.3106L17.5797 32H20.4446V30ZM31.1264 0.90909V-1.09091H29.7302L29.249 0.219719L31.1264 0.90909ZM34.7628 0.90909L36.6402 0.219719L36.159 -1.09091H34.7628V0.90909ZM45.4446 30V32H48.3095L47.322 29.3106L45.4446 30ZM41.7514 30L39.8667 30.6691L40.3391 32H41.7514V30ZM33.0582 5.51136L34.943 4.84229L34.4705 3.51136H33.0582V5.51136ZM32.831 5.51136V3.51136H31.4187L30.9462 4.84229L32.831 5.51136ZM25.5014 18.6364V16.6364H23.5014V18.6364H25.5014ZM40.3878 18.6364H42.3878V16.6364H40.3878V18.6364ZM40.3878 21.7614V23.7614H42.3878V21.7614H40.3878ZM25.5014 21.7614H23.5014V23.7614H25.5014V21.7614ZM24.1378 28H20.4446V32H24.1378V28ZM22.322 30.6894L33.0039 1.59846L29.249 0.219719L18.5672 29.3106L22.322 30.6894ZM31.1264 2.90909H34.7628V-1.09091H31.1264V2.90909ZM32.8853 1.59846L43.5672 30.6894L47.322 29.3106L36.6402 0.219719L32.8853 1.59846ZM45.4446 28H41.7514V32H45.4446V28ZM43.6362 29.3309L34.943 4.84229L31.1735 6.18043L39.8667 30.6691L43.6362 29.3309ZM33.0582 3.51136H32.831V7.51136H33.0582V3.51136ZM30.9462 4.84229L22.253 29.3309L26.0226 30.6691L34.7157 6.18043L30.9462 4.84229ZM25.5014 20.6364H40.3878V16.6364H25.5014V20.6364ZM38.3878 18.6364V21.7614H42.3878V18.6364H38.3878ZM40.3878 19.7614H25.5014V23.7614H40.3878V19.7614ZM27.5014 21.7614V18.6364H23.5014V21.7614H27.5014ZM44.5071 0.90909V-1.09091H40.9303L42.8032 1.95634L44.5071 0.90909ZM48.5412 0.90909L50.2606 -0.112486L49.6793 -1.09091H48.5412V0.90909ZM56.6094 14.4886L54.89 15.5102L55.4713 16.4886H56.6094V14.4886ZM56.9503 14.4886V16.4886H58.0884L58.6697 15.5102L56.9503 14.4886ZM65.0185 0.90909V-1.09091H63.8804L63.2991 -0.112486L65.0185 0.90909ZM69.0526 0.90909L70.7565 1.95634L72.6293 -1.09091H69.0526V0.90909ZM58.5412 18.0114L56.8373 16.9641L56.5412 17.4459V18.0114H58.5412ZM58.5412 30V32H60.5412V30H58.5412ZM55.0185 30H53.0185V32H55.0185V30ZM55.0185 18.0114H57.0185V17.4459L56.7224 16.9641L55.0185 18.0114ZM44.5071 2.90909H48.5412V-1.09091H44.5071V2.90909ZM46.8218 1.93067L54.89 15.5102L58.3288 13.4671L50.2606 -0.112486L46.8218 1.93067ZM56.6094 16.4886H56.9503V12.4886H56.6094V16.4886ZM58.6697 15.5102L66.7379 1.93067L63.2991 -0.112486L55.2309 13.4671L58.6697 15.5102ZM65.0185 2.90909H69.0526V-1.09091H65.0185V2.90909ZM67.3487 -0.138157L56.8373 16.9641L60.2451 19.0586L70.7565 1.95634L67.3487 -0.138157ZM56.5412 18.0114V30H60.5412V18.0114H56.5412ZM58.5412 28H55.0185V32H58.5412V28ZM57.0185 30V18.0114H53.0185V30H57.0185ZM56.7224 16.9641L46.211 -0.138157L42.8032 1.95634L53.3146 19.0586L56.7224 16.9641ZM73.6087 30H71.6087V32H73.6087V30ZM73.6087 0.90909V-1.09091H71.6087V0.90909H73.6087ZM89.0348 2.14489L88.0462 3.88347L88.0529 3.88729L88.0597 3.89106L89.0348 2.14489ZM92.2734 5.45455L90.487 6.35383L90.487 6.35383L92.2734 5.45455ZM92.2734 14.7869L90.4846 13.8925L90.4798 13.9022L92.2734 14.7869ZM89.0632 18.1392L90.0518 19.8778L90.0604 19.8729L89.0632 18.1392ZM76.4496 19.375H74.4496V21.375H76.4496V19.375ZM76.4496 16.25V14.25H74.4496V16.25H76.4496ZM87.1456 15.4403L86.1552 13.7028L86.1552 13.7028L87.1456 15.4403ZM89.2053 13.2528L87.3948 12.403L87.391 12.4112L89.2053 13.2528ZM89.2053 6.98864L87.391 7.83031L87.3945 7.83797L87.3982 7.84561L89.2053 6.98864ZM87.1314 4.82955L86.1616 6.57868L86.1682 6.58236L86.1749 6.586L87.1314 4.82955ZM77.1314 4.03409V2.03409H75.1314V4.03409H77.1314ZM77.1314 30V32H79.1314V30H77.1314ZM75.6087 30V0.90909H71.6087V30H75.6087ZM73.6087 2.90909H83.4382V-1.09091H73.6087V2.90909ZM83.4382 2.90909C85.4962 2.90909 86.9897 3.28271 88.0462 3.88347L90.0234 0.406305C88.1822 -0.640666 85.9446 -1.09091 83.4382 -1.09091V2.90909ZM88.0597 3.89106C89.1953 4.52526 89.9791 5.34481 90.487 6.35383L94.0599 4.55526C93.1663 2.78019 91.7909 1.3933 90.0099 0.398714L88.0597 3.89106ZM90.487 6.35383C91.0338 7.43993 91.3246 8.68027 91.3246 10.1136H95.3246C95.3246 8.11897 94.9146 6.25325 94.0599 4.55526L90.487 6.35383ZM91.3246 10.1136C91.3246 11.5468 91.0338 12.7941 90.4846 13.8925L94.0623 15.6814C94.9146 13.9768 95.3246 12.1085 95.3246 10.1136H91.3246ZM90.4798 13.9022C89.9763 14.9229 89.1962 15.7555 88.0661 16.4055L90.0604 19.8729C91.8279 18.8563 93.188 17.454 94.0671 15.6716L90.4798 13.9022ZM88.0746 16.4006C87.0159 17.0026 85.5307 17.375 83.495 17.375V21.375C85.9859 21.375 88.2128 20.9235 90.0518 19.8778L88.0746 16.4006ZM83.495 17.375H76.4496V21.375H83.495V17.375ZM78.4496 19.375V16.25H74.4496V19.375H78.4496ZM76.4496 18.25H83.3814V14.25H76.4496V18.25ZM83.3814 18.25C85.1496 18.25 86.7843 17.9483 88.136 17.1779L86.1552 13.7028C85.6129 14.0119 84.7382 14.25 83.3814 14.25V18.25ZM88.136 17.1779C89.4149 16.4489 90.4049 15.4194 91.0195 14.0945L87.391 12.4112C87.1533 12.9235 86.7703 13.3522 86.1552 13.7028L88.136 17.1779ZM91.0157 14.1027C91.5921 12.8747 91.8587 11.5321 91.8587 10.1136H87.8587C87.8587 11.0247 87.6896 11.7749 87.3948 12.403L91.0157 14.1027ZM91.8587 10.1136C91.8587 8.69564 91.5923 7.35453 91.0124 6.13166L87.3982 7.84561C87.6895 8.45986 87.8587 9.20208 87.8587 10.1136H91.8587ZM91.0195 6.14696C90.399 4.80936 89.3908 3.78258 88.0879 3.07309L86.1749 6.586C86.7849 6.91818 87.1592 7.33079 87.391 7.83031L91.0195 6.14696ZM88.1012 3.08041C86.7448 2.32837 85.1037 2.03409 83.3246 2.03409V6.03409C84.7083 6.03409 85.6051 6.27011 86.1616 6.57868L88.1012 3.08041ZM83.3246 2.03409H77.1314V6.03409H83.3246V2.03409ZM75.1314 4.03409V30H79.1314V4.03409H75.1314ZM77.1314 28H73.6087V32H77.1314V28ZM97.2237 30V32H98.636L99.1085 30.6691L97.2237 30ZM93.5305 30L91.6531 29.3106L90.6656 32H93.5305V30ZM104.212 0.90909V-1.09091H102.816L102.335 0.219719L104.212 0.90909ZM107.849 0.90909L109.726 0.219719L109.245 -1.09091H107.849V0.90909ZM118.531 30V32H121.395L120.408 29.3106L118.531 30ZM114.837 30L112.953 30.6691L113.425 32H114.837V30ZM106.144 5.51136L108.029 4.84229L107.556 3.51136H106.144V5.51136ZM105.917 5.51136V3.51136H104.505L104.032 4.84229L105.917 5.51136ZM98.5874 18.6364V16.6364H96.5874V18.6364H98.5874ZM113.474 18.6364H115.474V16.6364H113.474V18.6364ZM113.474 21.7614V23.7614H115.474V21.7614H113.474ZM98.5874 21.7614H96.5874V23.7614H98.5874V21.7614ZM97.2237 28H93.5305V32H97.2237V28ZM95.408 30.6894L106.09 1.59846L102.335 0.219719L91.6531 29.3106L95.408 30.6894ZM104.212 2.90909H107.849V-1.09091H104.212V2.90909ZM105.971 1.59846L116.653 30.6894L120.408 29.3106L109.726 0.219719L105.971 1.59846ZM118.531 28H114.837V32H118.531V28ZM116.722 29.3309L108.029 4.84229L104.259 6.18043L112.953 30.6691L116.722 29.3309ZM106.144 3.51136H105.917V7.51136H106.144V3.51136ZM104.032 4.84229L95.339 29.3309L99.1085 30.6691L107.802 6.18043L104.032 4.84229ZM98.5874 20.6364H113.474V16.6364H98.5874V20.6364ZM111.474 18.6364V21.7614H115.474V18.6364H111.474ZM113.474 19.7614H98.5874V23.7614H113.474V19.7614ZM100.587 21.7614V18.6364H96.5874V21.7614H100.587ZM123.062 30H121.062V32H123.062V30ZM123.062 0.90909V-1.09091H121.062V0.90909H123.062ZM126.585 0.90909H128.585V-1.09091H126.585V0.90909ZM126.585 26.875H124.585V28.875H126.585V26.875ZM140.107 26.875H142.107V24.875H140.107V26.875ZM140.107 30V32H142.107V30H140.107ZM125.062 30V0.90909H121.062V30H125.062ZM123.062 2.90909H126.585V-1.09091H123.062V2.90909ZM124.585 0.90909V26.875H128.585V0.90909H124.585ZM126.585 28.875H140.107V24.875H126.585V28.875ZM138.107 26.875V30H142.107V26.875H138.107ZM140.107 28H123.062V32H140.107V28Z" fill="#7C097E" fill-opacity="0.59"/>
</svg>
